<svg id="Layer_1" data-name="Layer 1" xmlns="http://www.w3.org/2000/svg" viewBox="0 0 334.42 432.17"><path d="M382.37,179.91h16.51a6.82,6.82,0,0,0,.87.2,83.57,83.57,0,0,1,23.3,6.1c10.4,4.38,19.57,10.51,26.83,19.25a57.23,57.23,0,0,1,13.1,33.6c.91,13.41-1.59,26.11-8.27,37.79-11.49,20.09-29.28,31-51.72,35-2.61.47-5.27.7-8,1.05,0,.31,0,.61,0,.9q0,26.75,0,53.49a2.15,2.15,0,0,0,.64,1.4q17.72,15.76,35.47,31.47c2.67,2.36,5.32,4.73,8,7.14-.42.39-.76.73-1.12,1.05q-21.07,18.94-42.15,37.89a2.41,2.41,0,0,0-.92,2q0,39,0,77.94c0,.4,0,.79,0,1.28.36-.12.6-.18.83-.28a131.89,131.89,0,0,0,46.22-32,143.58,143.58,0,0,0,28.82-46.69c.48-1.23,1.08-1.69,2.31-1.49v6.26c0,.4-.1.8-.12,1.21a224.2,224.2,0,0,1-3.23,31,172.74,172.74,0,0,1-16.75,50.23c-11.71,22.33-28.06,40.4-49.61,53.61-22.73,13.92-47.69,20.45-74.06,22.26-2.45.17-4.89.31-7.34.46H308.26a8.66,8.66,0,0,0-.87-.12,200.65,200.65,0,0,1-24.83-2.53,186.07,186.07,0,0,1-57.81-19.5,166.47,166.47,0,0,1-52.16-43,153.3,153.3,0,0,1-30.81-65.34,122,122,0,0,1-2.94-28.9c.12-3.87-.1-7.75,0-11.61.15-4.12.32-8.26.86-12.34a134.27,134.27,0,0,1,16.85-49.61c11.72-20.53,27.61-37.28,46.62-51.15,22.68-16.56,47.82-27.83,75-34.63,1.82-.45,3.65-.85,5.53-1.29l.54,1.73a122.35,122.35,0,0,0-37.64,28.5,119.53,119.53,0,0,0-23.79,40.78l110.05-49.2v1.45q0,82.86,0,165.72a1.67,1.67,0,0,1-1.18,1.81q-34.42,15.12-68.83,30.3L258,515.34V351c-.3.1-.47.14-.63.21q-17.81,7.81-35.59,15.66a1.71,1.71,0,0,0-.83,1c-1.43,5.92-3.05,11.81-4.17,17.79A180.63,180.63,0,0,0,214,425.55a136.91,136.91,0,0,0,7.44,41c8.06,22.77,22,40.91,42.65,53.66,16.72,10.33,35.13,15.44,54.54,17.29a180.55,180.55,0,0,0,32.3,0,160.11,160.11,0,0,0,39.36-8.33,1.58,1.58,0,0,0,1.28-1.79q-.06-39.48,0-78.95a2.76,2.76,0,0,0-1-2.3Q371,428.6,351.41,411l-4.06-3.66c.3-.22.49-.34.65-.48q21.27-18.57,42.53-37.13a2.72,2.72,0,0,0,1.05-2.26q0-26.58,0-53.16v-1.38c-.48,0-.85-.06-1.21-.05-11.53.27-22.82-1.49-34-4-13.83-3.06-27.37-7.18-40.88-11.39-16.76-5.22-33.49-10.57-50.33-15.56-14.08-4.18-28.38-7.5-43.09-8.57-6.57-.48-13.08-.35-19.38,1.92-8.59,3.1-15.34,8.37-19.5,16.66-3,6-3.36,12.27-2.22,18.72a25.2,25.2,0,0,0,7.64,14.66c1.27,1.18,2.69,2.2,4.06,3.3l-.55,2.05a3.37,3.37,0,0,1-.49-.09,105.8,105.8,0,0,1-19.35-9c-8.89-5.5-16-12.69-20-22.45-5.67-13.68-6.4-27.82-3-42.12,3.34-13.93,10.59-25.69,20.82-35.63,12.15-11.8,26.67-19.08,43.2-22.47,12.81-2.62,25.65-2.2,38.51-.52a212.79,212.79,0,0,1,30.48,6.52c13.88,3.92,27.42,8.83,41,13.57,13.37,4.65,26.74,9.29,40.66,12.07,8.07,1.61,16.2,2.8,24.46,2.1a27,27,0,0,0,18.06-8.45c9.83-10.48,8.56-29.08-6-36.43-6.95-3.5-14.34-4.44-22-3.92-2.32.16-4.64.29-6.94.43-.21-2.33-.21-2.33,1.85-2.78.33-.07.65-.16,1-.22Z" transform="translate(-138.79 -179.91)"/></svg>