<svg id="layer" xmlns="http://www.w3.org/2000/svg" viewBox="0 0 2418.4 2511.8"><defs><style>.cls-1{fill:#fff;}</style></defs><path class="cls-1" d="M1199.08,244.48c-515.45,0-935.9,418.9-935.9,935.9,0,440.7,305.22,811.32,716.33,909.43a558.66,558.66,0,0,0,70.07,14c37.38-7.79,67-12.46,90.32-15.58-34.26-1.55-68.52-6.23-101.22-12.45-425.12-76.31-749-448.49-749-895.42,0-501.43,408-909.42,909.43-909.42s909.43,408,909.43,909.42c0,442.26-317.68,812.88-736.58,893.86-32.7,6.23-65.4,10.9-99.66,14,21.8,3.12,51.39,6.23,88.76,14,23.36-4.67,46.72-9.35,68.52-15.57,404.88-102.78,703.87-470.29,703.87-906.32,1.56-517-417.34-935.9-934.34-935.9" transform="translate(0.03 0)"/><path class="cls-1" d="M1339.2,2326.51a569.43,569.43,0,0,1,73.19,15.57l65.4-14c-18.68-4.67-37.37-10.9-54.5-14-28,4.68-56.06,7.79-84.09,12.46M1199.08,0C548.2,0,18.69,529.46,18.69,1180.38c0,440.7,241.37,823.78,599.54,1027.78,12.46,6.23,23.36,14,35.82,20.25,10.9-3.12,21.8-7.79,34.25-10.9-12.45-6.23-24.91-12.47-35.81-18.69C291.2,2004.16,43.61,1621.08,43.61,1181.91,43.61,545,562.2,28,1197.52,28c636.91,0,1153.91,518.56,1153.91,1153.91,0,436-242.93,816-599.53,1012.2-12.46,6.23-23.36,12.46-35.82,18.69,10.9,4.67,21.8,7.79,32.7,10.9,12.46-6.22,23.36-12.45,35.82-20.24,353.49-204,591.75-585.52,591.75-1023.11C2379.46,529.46,1850,0,1199.08,0M988.85,2315.61c-17.13,4.67-35.81,9.34-54.5,14,21.8,4.67,43.6,9.34,67,12.45,28-6.23,51.39-10.9,73.19-15.57-29.59-1.56-57.62-6.23-85.65-10.9" transform="translate(0.03 0)"/><path class="cls-1" d="M191.54,1656.91l3.12-1.56c3.11,4.67,7.79,6.23,14,7.79H235.2l115.23-9.34,1.56,3.11-73.19,95c-9.34,10.9-14,18.69-14,21.8-1.56,3.12,0,6.23,1.55,10.9l-3.11,1.56-32.7-57.62,3.11-1.55,1.56,1.55a60.06,60.06,0,0,0,7.78,9.35q2.34,2.32,4.68,0c1.55,0,1.55-1.56,3.11-3.12a93.26,93.26,0,0,0,9.34-10.9l45.08-59.19-67,6.23c-7.78,0-14,1.55-15.57,1.55-3.11,0-4.67,1.56-6.23,1.56-1.56,1.55-3.11,1.55-3.11,4.67-1.56,1.56-1.56,3.11-1.56,6.23s1.56,6.23,4.67,10.9l-3.11,1.56Z" transform="translate(0.03 0)"/><path class="cls-1" d="M168.2,1577.48l52.94-20.24-1.55-3.12c-3.12-7.79-7.79-12.46-14-15.57-6.23-1.56-15.57-1.56-24.92,1.56l-1.55-3.12,67-24.91,1.56,3.11a67.48,67.48,0,0,0-15.58,10.9c-3.11,4.67-6.23,7.79-6.23,12.46,0,3.11,0,9.34,3.12,15.57l35.82-14c7.78-3.12,10.9-4.68,12.45-6.23s1.56-3.12,3.12-4.67,0-4.68-1.56-7.79l-3.11-7.79c-4.68-12.45-10.9-20.24-18.69-26.47a49,49,0,0,0-31.22-6.26l-1.55-3.11,43.6-9.35,42,112.12-3.11,1.56-1.56-4.67c-1.55-3.11-3.11-6.23-4.67-7.79s-3.11-1.55-6.23-1.55c-1.55,0-6.23,1.55-12.46,3.11l-85.62,31.16c-6.23,1.56-9.35,3.12-10.9,4.68s-3.12,3.11-3.12,4.67c-1.56,3.12,0,6.23,1.56,10.9l1.56,4.67-3.1,1.6-40.49-107.45,37.38-14,1.55,3.12a42.58,42.58,0,0,0-17.13,15.57,21.63,21.63,0,0,0-3.11,17.13c0,4.67,1.56,10.9,6.23,20.24Z" transform="translate(0.03 0)"/><path class="cls-1" d="M186.87,1334.55l48.33-4.64,24.91,119.91-3.11,1.55-1.56-4.67q0-4.68-4.67-9.34c-1.56-1.56-3.11-3.12-6.23-3.12a49.88,49.88,0,0,0-12.46,1.56l-88.76,18.69c-6.23,1.56-10.9,3.11-12.46,3.11-1.55,1.56-3.11,3.12-3.11,4.68v9.34l1.56,4.67-3.12,1.56-15.57-71.63,3.11-1.57,1.47,6.26c1.56,4.67,1.56,6.22,4.67,9.34,1.56,1.56,3.12,3.11,6.23,3.11a50.34,50.34,0,0,0,12.46-1.55l85.65-18.69c6.23-1.56,10.9-3.12,12.45-4.67s3.12-3.12,3.12-6.23a49.88,49.88,0,0,0-1.56-12.46l-3-11c-1.56-7.79-4.67-12.46-7.79-17.13s-7.78-7.79-14-9.34-15.58-3.12-26.48-4.68Z" transform="translate(0.03 0)"/><path class="cls-1" d="M174.42,1185.06l48.27,1.55,7.79,121.47h-3.12v-4.68c0-4.67-1.56-7.78-3.11-9.34s-3.12-3.11-4.67-3.11H207.12l-90.32,6.23c-6.23,0-10.9,1.55-12.46,1.55l-4.67,4.67c-1.56,3.12-1.56,4.68-1.56,9.35v4.67H95l-4.67-73.19h3.11v6.23c0,4.67,1.56,7.78,3.11,9.34s3.12,3.12,4.68,3.12h12.45l87.21-6.23c6.23,0,10.9-1.56,14-1.56l4.68-4.67V1227.1q0-11.68-4.68-18.69A47.25,47.25,0,0,0,202.44,1196a78.3,78.3,0,0,0-24.92-7.79Z" transform="translate(0.03 0)"/><path class="cls-1" d="M96.55,1080.72c-1.55,12.46,4.68,21.8,17.13,29.59,9.35,6.23,24.92,10.9,45.16,12.46,23.36,1.55,40.49-1.56,52.95-7.79q11.69-7,14-23.36c0-6.23,0-12.46-3.11-17.13-4.67-6.23-10.9-10.9-20.24-15.57s-21.81-6.23-35.82-7.79c-18.69-1.56-31.14-1.56-40.49,1.56s-15.57,6.23-20.24,10.9c-6.23,3.11-7.79,9.34-9.35,17.13m-6.22,0q2.33-32.7,23.35-51.39c14-12.46,32.71-18.69,53-17.13,17.13,1.56,32.7,7.79,45.16,18.69,17.13,15.57,23.36,34.26,21.8,59.17s-12.46,43.61-29.59,54.51A72.87,72.87,0,0,1,155.72,1157c-20.24-1.56-37.37-9.35-49.83-24.92-12.46-14-17.13-31.15-15.57-51.39" transform="translate(0.03 0)"/><path class="cls-1" d="M124.58,921.91l59.18,15.58,1.56-6.23c1.55-9.35,3.11-15.58,3.11-21.8,0-4.68-3.11-9.35-6.23-12.46s-9.34-6.23-15.57-7.79c-10.9-3.11-18.69-1.56-24.92,1.56s-10.9,10.9-14,21.8ZM190,939l37.37,9.35c7.79,1.55,12.46,3.11,14,1.55,1.55,0,4.67-1.55,6.23-3.11s3.11-6.23,4.67-12.46l3.11,1.56-17.13,68.52-3-1.54a50.34,50.34,0,0,0,1.55-12.46c0-3.11-1.55-4.67-3.11-6.23s-6.23-3.11-14-4.67l-87.21-21.8c-7.79-1.56-12.46-3.12-14-1.56-1.56,0-4.68,1.56-6.23,3.12s-3.12,6.23-4.67,12.45l-3.12-1.55,15.5-62.3c4.67-15.57,7.79-28,12.46-34.26s9.34-12.46,17.13-15.58,15.57-3.11,23.36-1.55c9.34,3.11,17.13,7.79,21.8,17.13,3.11,6.22,4.67,12.46,4.67,21.8l53-20.24c6.23-3.12,10.9-4.67,14-6.24s4.67-4.66,6.23-7.78l3.12,1.56-10.9,42-71.64,28Z" transform="translate(0.03 0)"/><path class="cls-1" d="M179.09,756.81l51.39,21.81L232,775.5c3.12-7.79,3.12-15.57,0-20.24-3.11-6.23-9.34-10.9-18.68-17.13L214.9,735l67,28-1.55,3.12c-7.79-3.12-14-3.12-20.25-3.12s-9.34,1.56-12.45,4.67-6.23,6.23-7.79,12.46l35.82,15.58c6.22,3.11,10.9,4.67,12.45,4.67s3.12,0,4.68-1.56,3.11-3.11,4.67-7.79l3.11-7.78c4.67-12.46,6.23-21.81,4.67-32.71-3.11-9.34-7.78-18.68-18.68-26.47l1.55-3.11,37.38,23.35-46.72,109-3.11-1.55,1.55-4.68c1.56-3.11,1.56-6.23,1.56-9.34,0-1.56-1.56-3.11-3.11-6.23-1.56-1.56-4.68-3.12-10.9-6.23l-84.1-35.82c-6.22-3.11-9.34-3.11-10.9-4.66-3.11,0-4.67,0-6.23,1.55-3.11,1.56-4.67,4.67-6.22,7.79l-1.56,4.67-3.12-1.56,45.12-105.85L235.2,707l-1.56,3.12c-9.34-1.56-17.13-3.12-23.36-1.56-4.67,1.56-10.9,4.67-14,10.9-3.12,3.11-6.23,9.34-10.9,18.69Z" transform="translate(0.03 0)"/><path class="cls-1" d="M401.77,613.55l3.12,1.56L366,675.84l-3.11-1.56,3.11-3.11c1.56-3.12,3.12-6.23,3.12-9.35,0-1.55,0-4.67-1.56-6.23a38.9,38.9,0,0,0-10.9-7.78L280.31,598c-6.23-3.12-9.35-6.23-10.9-6.23s-4.67,0-6.23,1.56-4.67,3.11-6.23,6.23l-3.12,3.11-3.11-1.56,38.93-60.73,3.12,1.56L289.65,545c-1.56,3.11-3.11,6.23-3.11,9.35,0,1.55,0,4.67,1.55,6.22a59.57,59.57,0,0,0,9.35,7.79l76.3,49.83c6.23,3.12,9.35,6.23,12.46,6.23,1.56,0,4.67,0,6.23-1.56a12.16,12.16,0,0,0,6.23-6.22Z" transform="translate(0.03 0)"/><path class="cls-1" d="M336.37,478.07l109,3.11L400.2,442.25c-6.23-4.67-10.91-7.78-15.58-7.78s-10.9,3.11-15.57,9.34l-3.12-3.11,29.59-34.26,3.12,3.11c-3.12,4.67-4.67,9.34-4.67,10.9a17,17,0,0,0,1.55,7.79c1.56,3.11,4.68,6.23,9.35,10.9l87.22,74.77L490.54,517,342.6,513.91l67,56.06c6.23,4.67,10.9,7.78,15.57,6.23s7.79-3.12,10.9-6.23l1.56-3.12,3.07,3.06-31.14,37.37-3.12-3.11c4.68-6.23,6.23-10.9,6.23-15.58s-3.11-9.34-9.34-14L328.58,512.3h-4.67c-4.67,0-7.79,0-10.9,1.56s-4.67,3.11-7.79,6.22L302.11,517Z" transform="translate(0.03 0)"/><path class="cls-1" d="M487.42,320.79l31.15,34.26-3.12,3.11c-9.34-7.78-18.69-10.9-29.59-10.9s-18.68,3.12-24.91,9.35c-4.67,4.67-7.79,9.34-7.79,15.57s0,9.34,4.67,14c1.56,1.56,4.67,3.12,6.23,4.67q4.68,2.34,14,0c4.67,0,12.46-3.11,24.91-6.22C520.1,380,534.12,378.4,541.9,380c9.35,1.56,15.58,6.23,21.8,12.46,7.79,9.35,10.91,18.69,9.35,31.15s-6.23,23.35-17.13,32.7c-3.12,3.11-6.23,4.67-10.9,7.78-3.12,1.56-7.79,4.68-14,6.23-3.11,1.56-6.23,3.12-7.78,3.12-1.56,1.55-1.56,3.11-3.12,4.67v7.85h-1.55l-34.26-39,3.11-3.11c12.46,9.34,23.36,14,35.82,14q16.35,0,28-9.34c6.23-4.67,9.34-10.9,9.34-17.13a26.3,26.3,0,0,0-4.67-15.57,8.55,8.55,0,0,0-7.71-4.65c-3.11-1.56-7.78-1.56-10.9-1.56-4.67,0-10.9,1.56-21.8,4.67-14,3.12-23.36,6.23-31.14,6.23-6.23,0-14,0-18.69-3.11-6.23-1.56-10.9-6.23-15.57-10.9-7.79-7.79-10.9-17.13-9.35-29.59,1.56-10.9,6.23-20.25,15.58-29.59,3.11-3.11,6.22-4.67,10.9-7.78a52.86,52.86,0,0,1,12.45-4.68c4.68-1.55,7.79-3.11,9.35-3.11,1.56-1.56,1.56-3.12,1.56-4.67s-1.56-4.67-3.12-7.79Z" transform="translate(0.03 0)"/><path class="cls-1" d="M629.13,222.68l20.24,31.15-3.11,1.56a44,44,0,0,0-17.13-10.91c-4.67-1.55-9.35-1.55-14-1.55-3.11,0-6.22,3.11-12.45,6.23l-7.79,6.23,59.18,88.76c4.67,6.23,6.22,9.34,7.78,10.9s3.12,1.56,6.23,1.56,6.23-1.56,9.34-3.12l3.12-3.11,1.56,3.11L622.9,394l-1.56-3.07,3.12-3.11c3.11-1.56,6.23-4.67,6.23-7.79,1.55-1.55,1.55-3.11,0-6.22,0-1.56-3.12-6.23-6.23-10.91l-59.18-88.76-7.78,6.23c-7.79,4.67-12.46,10.9-14,15.57a36.05,36.05,0,0,0,4.7,24.87l-3.11,1.56L524.84,291.2Z" transform="translate(0.03 0)"/><path class="cls-1" d="M781.74,294.32l1.56,3.11-63.85,32.7L717.89,327l4.67-1.56c3.12-1.56,6.23-4.67,7.79-6.23s1.56-3.11,1.56-6.23c0-1.55-1.56-6.22-4.67-12.45l-42-81a38.59,38.59,0,0,0-7.79-10.9c-1.55-1.56-3.11-1.56-6.23-1.56s-6.22,1.56-9.34,3.11l-4.68,1.58-1.56-3.11L719.49,176l1.56,3.11-4.67,1.56c-3.12,1.55-6.23,4.67-7.79,6.23S707,190,707,193.09c0,1.56,1.56,6.23,4.67,12.46l42,81a38.56,38.56,0,0,0,7.78,10.9C763,299,764.6,299,767.71,299s6.23,0,9.35-3.11Z" transform="translate(0.03 0)"/><path class="cls-1" d="M865.83,116.79l12.46,34.26-3.09,1.56c-4.67-7.79-9.34-12.46-14-15.58q-4.68-4.67-14-4.67a28.34,28.34,0,0,0-14,3.12l-9.35,3.11,37.35,99.66c3.11,6.23,4.67,10.91,6.23,12.46s3.11,1.56,6.22,3.12c3.12,0,6.23,0,9.35-1.56l4.67-1.56,1.56,3.12-67,24.91-1.56-3.11,4.67-1.56c3.12-1.56,6.23-3.11,7.79-4.67s1.55-3.11,1.55-6.23c0-1.56-1.55-6.23-3.11-12.45L794.2,151.05l-9.35,3.11c-9.34,3.12-14,7.79-17.13,12.46-3.11,7.79-4.67,15.57-1.55,26.47l-3.12,1.56-12.46-34.26Z" transform="translate(0.03 0)"/><path class="cls-1" d="M900.09,105.91l70.11-14L971.75,95h-3.11c-4.67,1.56-9.35,3.11-10.9,4.67s-3.12,3.12-3.12,4.67a68.63,68.63,0,0,0,1.56,14l14,65.4c3.11,12.46,4.67,20.25,7.78,23.36s6.23,6.23,10.9,7.79,10.9,1.55,17.13,0a30.81,30.81,0,0,0,17.13-9.35c4.67-4.67,7.79-9.34,9.34-15.57s0-17.13-3.11-31.14l-12.46-54.51c-1.56-6.23-3.11-10.9-4.67-12.45a21.48,21.48,0,0,0-6.23-4.68c-3.11-1.55-7.79,0-12.46,0V84.1l46.72-9.34,1.56,3.11h-3.12q-4.67,0-9.34,4.67c-1.56,1.56-3.12,4.67-4.67,7.79a50.34,50.34,0,0,0,1.55,12.46l10.91,51.38c3.11,15.58,4.67,28,4.67,35.82s-4.67,15.57-10.9,21.8c-6.23,7.79-17.13,12.46-31.15,15.57-12.46,3.12-20.24,3.12-28,1.56-9.34-3.11-17.13-6.23-21.8-12.46s-9.34-14-10.9-24.91l-14-65.41q-2.34-11.67-4.68-14c-1.55-1.56-3.11-3.12-4.67-3.12a43.69,43.69,0,0,0-12.46,1.56Z" transform="translate(0.03 0)"/><path class="cls-1" d="M1197.52,65.4l1.56,37.38H1196c-3.11-7.79-4.67-14-7.78-18.69-3.12-3.12-6.23-6.23-10.9-7.79-3.12-1.55-7.79-1.55-14-1.55h-10.9l6.23,105.89c0,7.78,1.56,10.9,1.56,14l4.67,4.67c3.11,1.56,6.23,1.56,9.34,1.56h4.68V204l-71.66,4.69v-3.12h4.67c4.67,0,7.79-1.56,9.35-3.11s3.11-3.12,3.11-4.67,1.56-6.23,0-12.46L1118.1,79.42h-9.34a34.64,34.64,0,0,0-20.25,6.23q-9.35,9.33-9.34,23.35h-3.11l-1.56-37.37Z" transform="translate(0.03 0)"/><path class="cls-1" d="M1283.2,79.42l-4.67,56.06h3.11c9.35,0,15.57-1.56,20.25-6.23s7.78-12.46,9.34-23.36h3.11l-6.23,71.63H1305c0-7.78-1.56-14-3.11-20.24-1.56-4.67-4.68-9.34-7.79-10.9s-7.79-3.12-15.57-3.12l-3.12,38.93v14c0,1.56,1.56,3.11,3.12,4.67s4.67,1.56,7.78,1.56h7.79a48.9,48.9,0,0,0,31.1-6.21c7.79-4.67,14-14,18.69-26.47H1347l-9.35,43.6L1219.31,204v-3.09H1224c4.67,0,7.79,0,9.34-1.56s3.12-1.55,4.68-4.67c1.56-1.56,1.56-6.23,1.56-12.46l7.78-90.31V81c0-3.11-1.55-4.67-3.11-6.22-3.12-1.56-6.23-3.12-10.91-3.12h-4.67V68.52l115.25,9.39-3.11,40.49h-3.12c-1.56-9.34-3.11-17.13-6.23-21.8s-7.78-7.79-14-10.9c-3.12-1.56-10.9-3.12-21.8-3.12Z" transform="translate(0.03 0)"/><path class="cls-1" d="M1532.33,123q-18.69-4.67-32.7,9.34c-7.79,7.79-15.58,21.8-21.81,40.49-6.23,21.8-7.78,40.49-3.11,53,3.11,9.34,9.34,15.57,20.24,18.68a37.91,37.91,0,0,0,18.69,0c6.23-3.11,14-7.78,18.69-15.57,6.23-7.79,10.9-18.69,15.57-34.26,4.67-17.13,7.79-31.14,7.79-40.49a40.33,40.33,0,0,0-6.23-21.8c-6.23-3.11-10.9-7.78-17.13-9.34m0-6.23c21.8,6.23,35.81,17.13,45.16,34.26s10.9,35.82,4.67,54.5c-4.67,17.13-14,29.59-28,38.93-18.69,12.46-38.93,15.58-62.29,7.79s-38.93-21.8-46.72-40.49c-6.23-15.57-6.23-32.7-1.55-49.83,6.22-20.24,17.12-34.26,35.81-42,15.57-9.35,34.26-10.91,53-3.12" transform="translate(0.03 0)"/><path class="cls-1" d="M1678.71,185.31l-24.92,51.39,3.12,1.55a29.54,29.54,0,0,0,14,4.68c4.67,0,7.79-1.56,12.46-4.68s7.78-7.78,12.46-14l3.11,1.56L1667.8,288.1l-3.12-1.56c4.67-12.46,4.67-21.8,1.56-28a30.63,30.63,0,0,0-14-14l-3.11-1.55-18.69,37.37c-3.11,6.23-4.67,10.9-4.67,12.46s0,4.67,1.56,6.23,4.67,4.67,7.78,6.23l4.68,1.55-1.59,3.08-65.4-31.15,1.55-3.11,4.67,1.55c3.12,1.56,6.23,3.12,9.35,1.56,1.56,0,3.11-1.56,6.23-3.11,1.55-1.56,3.11-4.67,6.23-10.9l40.48-81c3.12-6.23,4.67-10.9,4.67-12.46s0-4.67-1.55-6.23-4.67-4.67-7.79-6.22l-4.67-1.56,1.56-3.12,104.33,51.39-17.13,35.82-3.11-1.56c3.11-9.34,4.67-15.57,3.11-21.8s-4.67-10.9-10.9-15.57c-3.11-3.12-9.34-6.23-20.24-10.9Z" transform="translate(0.03 0)"/><path class="cls-1" d="M1915.41,327l-21.8,29.59-3.12-1.56q4.68-11.69,4.67-18.69c0-4.67-1.55-9.34-3.11-14q-2.34-4.68-9.35-9.35l-7.78-6.23-63.85,85.65c-4.67,6.23-6.23,9.34-6.23,10.9s0,4.67,1.56,6.23c1.56,3.12,3.12,4.67,6.23,7.79l3.11,3.11-1.55,3.12L1756.57,380l1.55-3.11,3.12,3.11,9.34,4.68c1.56,0,4.67,0,6.23-1.56l9.35-9.34L1850,288.1l-7.8-6.19c-7.79-6.23-14-7.79-20.25-7.79a43.26,43.26,0,0,0-23.35,12.46l-3.12-1.56,21.8-29.58Z" transform="translate(0.03 0)"/><path class="cls-1" d="M1973,390.91l-40.48,38.94,1.55,1.55c6.23,6.23,12.46,9.35,18.69,7.79a45.4,45.4,0,0,0,21.8-12.46l3.12,3.12-51.39,51.38-3.12-3.11a63.7,63.7,0,0,0,9.35-17.13,21.66,21.66,0,0,0,0-14,51.25,51.25,0,0,0-9.35-12.45l-28,28c-4.67,4.67-7.78,9.34-9.34,10.9,0,1.55-1.56,3.11,0,6.23,0,1.55,1.56,4.67,4.67,7.78l6.23,6.23c9.34,9.34,18.69,14,28,15.58s20.24-1.56,31.15-7.79l3.11,3.11L1923.2,531l-84.1-84.1,3.12-3.11,3.11,3.11c3.12,3.12,6.23,4.68,7.79,4.68h6.23c1.55,0,4.67-3.12,9.34-7.79L1932.54,380c4.67-4.67,6.22-7.78,7.78-7.78,1.56-1.56,1.56-4.67,1.56-6.23,0-3.12-3.12-6.23-6.23-9.34l-3.11-3.12,3.11-3.11,81,82.53-29.59,28-3.12-3.12c6.24-7.78,9.35-15.57,9.35-20.24,0-6.23,0-10.9-3.11-17.13-1.56-3.11-6.24-9.34-14-17.13Z" transform="translate(0.03 0)"/><path class="cls-1" d="M2136.53,573.06l-38.93,28-1.55-3.11c7.78-9.35,12.46-20.25,12.46-31.15s-1.56-20.24-7.79-28c-4.67-6.23-12.46-12.46-20.25-14-7.78-3.12-17.13-3.12-24.91-1.56-10.9,3.11-21.8,7.78-31.15,15.57s-18.68,15.58-24.91,23.36-9.34,17.13-9.34,24.92,3.11,17.13,9.34,24.91c4.67,6.23,10.9,12.46,18.68,15.58s17.14,6.22,29.59,6.22l-9.34,7.79q-16.35-2.34-28-9.34a66.32,66.32,0,0,1-21.8-20.25c-9.35-12.45-14-23.36-15.58-37.37a69.35,69.35,0,0,1,4.68-35.82q7-16.35,23.36-28a78.36,78.36,0,0,1,35.81-14c14-1.56,26.47,0,38.93,6.22s21.8,14,29.59,24.92a57.67,57.67,0,0,1,12.46,28c1.56,6.23,3.11,10.9,4.67,12.46s3.11,3.11,4.67,3.11A17,17,0,0,0,2135,570Z" transform="translate(0.03 0)"/><path class="cls-1" d="M2116.29,686.74l-37.37,18.69a38.74,38.74,0,0,0-10.91,7.78c-1.55,1.56-1.55,3.12-1.55,6.23s0,6.23,1.55,9.34l1.56,4.68-3.11,1.55-32.7-63.84,3.11-1.56,1.56,4.67c1.56,3.12,3.12,6.23,6.23,7.79,1.56,1.55,3.11,1.55,6.23,1.55,1.56,0,6.23-1.55,12.45-4.67l81-40.48c6.23-3.12,9.34-6.23,10.9-6.23,1.56-1.56,1.56-3.12,1.56-6.23s0-6.23-3.12-9.35v-6.23l3.12-1.55,32.7,63.84-3.11,1.56-1.56-4.67c-1.56-3.11-4.67-6.23-6.23-7.79s-3.11-1.55-6.23-1.55c-1.56,0-6.23,1.55-12.46,4.67l-34.26,17.13,21.81,43.6,34.25-17.13c6.23-3.11,9.35-6.23,10.9-6.23,1.56-1.56,1.56-3.11,1.56-6.23s0-6.23-3.11-9.34l-1.56-3.12,3.11-1.55,32.69,63.84-3.12,1.56-1.55-4.67c-1.56-3.12-4.68-6.23-6.23-7.79s-3.12-1.55-6.23-1.55c-1.56,0-6.23,1.55-12.46,4.67l-81,40.49c-6.22,3.11-9.34,6.23-10.9,6.23-1.55,1.55-1.55,3.11-1.55,6.22s0,6.23,3.11,9.35l1.56,4.67-3.12,1.56-32.7-63.85,3.11-1.56,1.56,4.67c1.56,3.12,4.68,6.23,6.23,7.79s3.12,1.56,6.23,1.56c1.56,0,6.23-1.56,12.46-4.67l37.39-18.68Z" transform="translate(0.03 0)"/><path class="cls-1" d="M2253.33,822.22l-60.74,90.32,56.06-17.13c7.79-3.11,12.47-4.67,15.58-7.79,3.11-4.67,3.11-9.34,0-17.13l3.11-1.56,14,43.61-3.12,1.56c-3.11-4.68-4.67-9.35-6.23-10.9s-4.67-3.12-6.23-3.12a28.34,28.34,0,0,0-14,3.12l-109,34.25-1.55-3.11,81-123-84.09,26.47c-7.78,3.11-12.46,6.23-14,10.9a17.17,17.17,0,0,0,0,12.46l1.55,3.12-3.11,1.55-14-46.72,3.11-1.55c3.11,7.79,4.67,12.45,9.34,14,3.12,1.56,9.35,1.56,15.58,0L2230,802l3.11-3.11c3.12-3.11,4.67-7.79,4.67-9.34,0-3.12,0-6.23-1.55-9.35l3.11-1.56Z" transform="translate(0.03 0)"/><path class="cls-1" d="M2295.37,1021.54c-1.55-12.45-9.34-20.24-23.36-24.91-10.89-3.12-26.47-4.67-46.71-1.56-23.36,3.12-38.93,9.35-49.83,20.25a28.69,28.69,0,0,0-7.79,24.91c1.56,6.23,3.11,12.46,7.79,17.13a41.17,41.17,0,0,0,21.8,10.9q14,2.34,37.37,0c18.69-3.11,31.14-6.23,38.93-10.9s14-9.34,17.13-15.57c4.67-7.79,6.23-14,4.67-20.25m6.23-1.55c3.12,21.8,0,40.49-10.9,56.06s-28,24.91-46.71,28c-17.14,3.11-32.71,0-48.28-7.79-18.69-10.9-31.14-28-34.26-52.94s1.56-45.16,17.13-60.74a65.54,65.54,0,0,1,43.6-21.8c20.25-3.11,37.38,1.56,53,14,15.57,9.34,24.92,24.91,26.47,45.16" transform="translate(0.03 0)"/><path class="cls-1" d="M2222.2,1255.13l-48.27-6.23,1.56-123h3.11v4.67c0,4.67,0,7.79,1.56,9.35l4.67,4.67c1.56,0,6.23,1.56,12.46,1.56l90.32,1.55c6.23,0,10.9,0,12.46-1.55q2.32,0,4.67-4.68c1.55-1.55,1.55-4.67,1.55-9.34v-4.67h3.12l-1.56,73.19h-3.11v-6.23c0-4.67,0-7.79-1.56-9.34l-4.67-4.67c-1.56-1.56-6.23-1.56-12.46-1.56l-87.21-1.56c-7.78,0-10.9,0-14,1.56-1.56,0-3.12,3.11-4.67,4.67,0,1.56-1.56,6.23-1.56,12.46v10.93a58.23,58.23,0,0,0,3.11,18.68c3.12,4.68,6.23,9.35,12.46,12.46,4.67,3.12,14,7.79,24.92,10.9v6.23Z" transform="translate(0.03 0)"/><path class="cls-1" d="M2290.7,1367.25c1.56-12.46-3.11-23.36-14-31.14-9.35-7.79-23.36-12.46-43.61-15.58-23.36-4.66-40.49-3.11-52.94,3.12-9.35,4.67-14,12.46-15.57,21.8-1.56,6.23,0,12.46,1.55,18.69,3.12,6.23,9.35,12.45,18.69,17.13s20.24,9.34,35.82,10.9c17.12,3.11,31.14,3.11,40.49,1.55s17.12-4.67,21.79-9.34,7.79-10.9,7.79-17.13m7.79,0c-3.12,21.8-12.46,38.93-28,49.83s-34.26,15.58-54.51,12.46c-17.13-3.11-31.14-10.9-43.6-23.36-15.57-17.13-20.24-37.37-17.13-60.73,4.67-24.92,15.57-42,34.26-53,15.57-7.78,31.14-10.9,49.83-7.78,20.25,3.11,35.82,14,46.72,29.59,12.46,15.57,15.57,32.7,12.46,52.94" transform="translate(0.03 0)"/><path class="cls-1" d="M2231.53,1608.62l-45.16-15.57,1.55-3.11c14,0,26.48-3.12,35.82-9.35s15.57-14,20.25-24.91c3.11-9.35,3.11-18.69,0-26.48s-9.35-15.57-18.69-21.8a118,118,0,0,0-28-14c-12.46-4.67-23.36-6.23-34.26-7.79-10.9,0-18.69,1.56-26.47,6.23-6.23,4.67-10.91,12.46-14,20.24-1.56,3.12-1.56,6.23-3.11,9.35s0,7.78,0,10.9l26.47,9.34c4.67,1.56,7.79,3.12,10.9,3.12,1.56,0,3.11-1.56,6.23-3.12,1.56-1.55,3.11-4.67,4.67-7.78l1.56-3.12,3.11,1.56-21.8,63.85-3.11-1.56a35.31,35.31,0,0,0,1.55-10.9c0-1.56-1.55-4.67-3.11-6.23s-4.67-1.56-9.34-4.67l-26.48-9.35v-29.56a250.89,250.89,0,0,1,6.23-29.59c4.67-12.46,9.35-21.8,15.57-29.59,6.23-6.23,12.46-12.46,20.25-17.13s15.57-6.23,23.36-7.78c10.9-1.56,20.24,0,32.7,3.11,20.24,6.23,34.26,20.24,42,37.37,9.35,18.69,9.35,38.93,1.56,59.18a57.83,57.83,0,0,1-7.78,17.13c-1.56,3.11-4.68,6.23-9.35,12.46a68.9,68.9,0,0,0-7.79,9.34v6.23c0,1.56,3.12,4.67,6.23,6.23Z" transform="translate(0.03 0)"/><path class="cls-1" d="M2141.2,1778.36l-3.12-1.55a30.33,30.33,0,0,0,1.56-10.9c-1.56-4.68-4.67-12.46-12.46-24.92l-29.59-49.83L2068,1675.58c-6.22-3.11-10.89-4.67-12.45-4.67a11.72,11.72,0,0,0-6.23,1.56c-1.56,1.56-4.67,3.11-6.23,6.23l-3.11,6.23-3.12-1.56,37.37-68.52,3.12,1.56-3.12,6.23c-1.55,3.11-3.11,6.23-3.11,9.34,0,1.56,1.56,4.67,1.56,6.23,1.55,1.56,4.67,3.11,10.9,7.79l24.92,14h67c14,0,21.8,0,24.91-1.56s6.23-3.11,7.79-7.78l3.11,1.55-31.14,57.63-3.12-1.56,1.56-3.12c1.56-3.11,3.11-6.23,3.11-7.78a5.46,5.46,0,0,0-1.55-3.12c-1.56-1.56-9.35-1.56-20.25-1.56h-51.38l24.91,42c6.23,10.9,10.9,15.57,14,17.13q2.33,2.34,4.67,0c3.11-1.56,4.67-4.67,9.34-9.35l3.12,1.56Z" transform="translate(0.03 0)"/><path class="cls-1" d="M1141.46,431.35V436c-7.79,1.56-14,4.68-18.69,10.9-4.67,4.68-10.9,15.58-18.68,34.26l-68.52,149.5h-4.67L963.9,475a359.67,359.67,0,0,0-15.58-32.7c-3.11-3.11-7.78-4.67-15.57-6.23v-4.67h93.45V436h-3.11c-7.79,0-14,1.56-17.13,3.12-1.56,1.56-3.11,3.11-3.11,6.23a11.81,11.81,0,0,0,1.55,6.23c1.56,3.11,3.12,9.34,7.79,18.68l42,98.11,39-87.21c4.67-10.9,7.78-17.13,7.78-21.8,1.56-3.11,1.56-6.23,1.56-9.34s0-4.67-1.56-7.79a21.76,21.76,0,0,0-6.23-4.67,48,48,0,0,0-17.13-3.11V429.8h63.85Z" transform="translate(0.03 0)"/><path class="cls-1" d="M1267.6,621.34V626H1164.82v-4.67h6.23a31,31,0,0,0,14-3.12,12.07,12.07,0,0,0,6.23-6.23c1.56-1.56,1.56-7.78,1.56-18.68V464.05c0-9.34,0-15.57-1.56-18.68a12.07,12.07,0,0,0-6.23-6.23,29.21,29.21,0,0,0-12.46-3.12h-6.23v-4.67H1269.2V436H1263a31,31,0,0,0-14,3.12,12.22,12.22,0,0,0-6.23,6.23c-1.56,1.55-1.56,7.78-1.56,18.68V593.31c0,9.34,0,17.12,1.56,18.68a12.22,12.22,0,0,0,6.23,6.23,29.35,29.35,0,0,0,12.46,3.12Z" transform="translate(0.03 0)"/><path class="cls-1" d="M1474.71,431.35V484.3H1470c-3.12-12.46-6.23-21.8-10.9-26.48-3.12-4.67-9.35-9.34-15.57-12.45-3.12-1.56-10.91-3.12-18.69-3.12h-14V593.31c0,9.34,0,15.57,1.56,18.68a12.14,12.14,0,0,0,6.23,6.23,31,31,0,0,0,14,3.12h6.23V626H1336.11v-4.67h6.23a31,31,0,0,0,14-3.12,12.22,12.22,0,0,0,6.23-6.23c1.55-1.56,1.55-7.78,1.55-18.68V442.25h-14c-14,0-23.36,3.12-29.59,7.79a54.11,54.11,0,0,0-15.57,32.7h-6.23V429.8h176Z" transform="translate(0.03 0)"/><path class="cls-1" d="M798.87,1074.49l6.23-24.92,17.13,3.12-4.68,24.91Zm-15.57-49.83,3.11,10.9-1.56,7.79-4.67,6.23-3.11,6.23-1.56,14-3.11,4.67L844,1086.94l4.67-46.72-62.29-14H783.3Z" transform="translate(0.03 0)"/><path class="cls-1" d="M791.08,1110.31l6.23-24.92,17.13,3.12-4.67,24.91Zm-20.24-28-1.56,3.11v10.9l-4.67,3.12-3.12,9.34,77.87,14,1.55-32.71-70.07-12.46Z" transform="translate(0.03 0)"/><path class="cls-1" d="M797.31,1153.91l-18.69-3.11,6.23-24.92L802,1129Zm-35.82-40.49-4.67,4.68s-3.11,6.22-1.55,4.67c1.55,0,3.11,6.22,3.11,6.22l-3.11,3.12v4.67l-3.12,1.56,1.56,3.11-1.56,3.12v3.11l88.76,20.25v-37.38Z" transform="translate(0.03 0)"/><path class="cls-1" d="M770.84,1188.17l6.23-24.91,17.13,3.11L788,1191.29Zm-23.36-32.7-3.12,3.11,1.56,3.12,3.12,1.56-3.12,4.67v7.78l-1.56,7.79L844,1205.3V1171L752.2,1150.8Z" transform="translate(0.03 0)"/><path class="cls-1" d="M781.74,1239.56l-18.69-3.12,6.23-24.91,17.13,3.11Zm-43.6-49.83H735l1.56,6.23-4.67,4.67-3.12,4.67-1.55,6.23-4.68,4.67c-1.55,1.56,3.12,10.9,3.12,10.9l-3.12,6.23,118.35,26.47v-43.6Z" transform="translate(0.03 0)"/><path class="cls-1" d="M750.59,1283.16l6.23-24.91,17.13,3.11-6.23,24.92Zm-37.39-38.93-3.11,7.79-7.79,3.11-1.56,12.46-3.11,9.34,141.71,34.26v-43.6l-119.91-28Z" transform="translate(0.03 0)"/><path class="cls-1" d="M921.89,1069.82l-1.56-24.92,18.69-1.55,3.11,23.35Zm73.19-17.13,1.56-3.12,3.11-4.67,1.56-4.67-4.67-4.67-1.56-3.11-133.88,6.22-3.12,45.17,141.71-17.14-3.11-6.22a68.39,68.39,0,0,0-1.56-7.79" transform="translate(0.03 0)"/><path class="cls-1" d="M925,1082.28l18.68-1.56,3.12,23.36-20.25,1.56Zm-67,7.78-1.56,32.71,155.75-23.36-1.56-3.12v-6.23l-6.23-3.11v-9.35l-3.11-4.67Z" transform="translate(0.03 0)"/><path class="cls-1" d="M931.2,1121.21l18.69-1.56L953,1143l-20.25,1.56Zm-74.75,9.34v37.36l171.3-32.71-3.11-1.55-1.56-6.23-4.67-3.12v-4.67l-3.12-6.23,3.12-3.11-3.12-4.67Z" transform="translate(0.03 0)"/><path class="cls-1" d="M935.91,1161.7l18.68-1.56,3.12,24.92-20.25,1.55Zm-79.43,14V1210l180.65-34.26,1.55-3.11v-3.12l-3.11-3.11-4.67-7.79-3.12-3.11-1.56-4.67,1.56-3.12-3.11-6.23Z" transform="translate(0.03 0)"/><path class="cls-1" d="M942.13,1205.3l18.69-1.56,3.12,24.92-20.25,3.11Zm-85.65,10.9v43.6l196.22-34.26,1.55-4.67-4.67-7.78-7.78-6.23-1.56-6.23,1.56-4.67-1.56-4.67v-7.79l-1.56-3.12Z" transform="translate(0.03 0)"/><path class="cls-1" d="M953,1259.8l18.68-1.55,3.12,24.91-20.25,3.12Zm-96.56,9.35v45.16l211.79-37.4,4.67-9.34-3.11-20.25-6.23-1.55-9.35-10.9Z" transform="translate(0.03 0)"/><path class="cls-1" d="M2022.86,1245.79c-4.68,4.67-17.13,7.78-17.13,7.78l-10.91-1.55s-9.33-3.12-12.45-1.56c-1.56,1.56-17.13,6.23-18.69,6.23s-4.67-3.12-4.67-6.23,0-9.34-3.11-9.34-9.35,1.55-9.35-1.56a16.22,16.22,0,0,0-1.56-6.23l-12.45,1.56a27.08,27.08,0,0,1-6.23-4.67c-1.56-4.68-7.79-15.58-7.79-15.58h-7.78l-12.46-1.55s-6.23-3.12-9.35-3.12-9.34-4.67-12.45,4.67c-3.12,7.79-4.68,17.13-7.79,17.13s-6.23,0-9.34,1.56c-1.56,1.56-4.68,1.56-7.79,3.11s-12.46,1.56-14,4.68c-1.56,1.55-20.25,9.34-21.81,10.9-1.55,0-17.12,4.67-20.24,4.67s-26.47,1.56-29.59-4.67-4.67-7.79-9.34-7.79,0-3.11-6.23-3.11H1741s-14-12.46-14-15.58c-1.56-3.11-1.56-4.67-4.67-6.23s-12.46-4.67-12.46-4.67-9.34-6.23-14-3.11c-3.12,1.56-12.46,1.56-12.46,4.67,0,1.56-7.79,7.79-7.79,7.79s-6.23,1.55-7.78,3.11c-1.56,0-9.35,4.67-14,4.67s-6.23,6.23-6.23,6.23-9.34,9.34-14,10.9,0,3.12-7.79,3.12-17.13-4.68-17.13-4.68a3.41,3.41,0,0,0-4.55-1.61l-.12.06c-3.11,1.55-9.34-3.12-9.34-3.12l-9.35-3.11-9.34-7.79h-6.23l-10.9-1.56s-15.57-4.67-17.13-6.22-14-9.35-14-15.58c0-4.67-3.12-6.22-4.68-7.78s0-7.79,7.79-6.23l23.36,3.11s29.59,6.23,35.81,4.68c4.68-1.56,12.46,1.55,14,3.11s3.11,14,6.23,15.57,6.23,4.67,9.34,4.67,12.46-7.78,15.57-10.9,24.92-21.8,26.48-24.91,9.34-10.9,15.57-10.9,17.13-7.79,29.59-7.79h15.57c6.23,0,14-3.11,14-3.11s7.79,9.34,12.46,10.9c3.12,0,7.79,4.67,10.9,6.23,1.56,1.55,14,10.9,17.13,14,3.12,4.67,14,6.23,14,6.23s7.79-3.12,10.9,0,10.9,9.34,15.57,9.34h12.46c4.67,0,14-9.34,17.13-10.9,1.56-1.56,7.79-1.56,7.79-1.56s6.22,1.56,9.34,0c3.11,0,6.23-4.67,9.34-4.67s7.79,0,10.9-3.11c1.56-1.56,3.12-7.79,3.12-7.79l7.8-4.69,18.69-3.11,26.47,7.78,12.46,15.57,21.8,7.79s17.13,1.56,21.81,1.56,24.91,10.9,26.46,10.9-1.55,9.34,0,10.9c6.23,0,4.68,9.34,0,12.46m88.76-132.37s-42.05-14-51.39-10.9-17.13,6.23-17.13,7.79c0,0-15.57,0-15.57,7.79s3.11,7.78,4.67,15.57-9.35,9.34-9.35,14c1.56,3.12,10.91,7.79,10.91,12.46s-4.68,15.57-17.13,10.9-7.79,7.79-12.46,4.67c-6.23-1.56-15.57-1.56-10.9-7.78h-17.13s-6.23-17.13-9.35-17.13c-4.67,0-3.11-4.67-9.34-6.23s-9.34-4.67-10.9-4.67h-10.9s-3.11,3.11-6.23,0c-4.67-3.12-6.23-1.56-7.78-6.23-1.56-3.12-9.35-7.79-9.35-7.79l-6.23,1.56s-7.78,4.67-9.34,9.34c-1.56,6.23-6.23,6.23-7.79,4.67,0-1.55-6.23-1.55-6.23-4.67s-4.67-7.79-4.67-7.79h-6.23c-1.55,0-10.9,3.12-10.9,3.12l-3.11,6.23c-1.56,0-9.34,4.67-9.34,4.67s0,1.56-3.12,3.12-9.34,7.78-9.34,7.78l-6.23,7.79-7.79-3.12-7.78,4.67s-4.67,3.12-6.23,3.12c-1.56,1.56-6.23-1.56-6.23-1.56s-6.23-4.67-4.67-6.23,1.56-7.78,0-9.34-9.35-6.23-9.35-6.23l-14-3.11s-9.34,0-9.34-3.12-10.9-7.79-10.9-7.79l-6.23-1.55s-6.24-1.56-7.79,0-7.79,6.23-7.79,6.23l-6.23,4.67-7.78-4.67-9.35-6.23H1699l-15.57,4.67-7.79,6.23s-9.34,1.56-9.34,0h-10.9l-10.9,4.67-3.12,6.23-6.23,3.11-7.78,1.56-3.12,6.23v3.11l-4.67,7.79-10.9,3.11-17.13-7.78s-32.7-3.12-42-1.56-38.93,4.67-46.72,3.12c-6.23-3.12-28-1.56-31.15-1.56-4.67,0-18.68,10.9-20.24,9.34-1.56,0-20.25,4.67-21.8-10.9v51.39l-3.12,3.11-3.11,3.12-204,3.11-4.67-6.22,1.47-12.37-1.56-10.9v-17.13h-6.23l-3.11,3.11-10.9,3.12-4.67-1.56H1171l-7.79-3.12-7.79-12.45-7.78-6.23,3.11-7.79,4.67-1.56,3.12-4.67c0-1.55,1.56-1.55-1.56-4.67s-6.23-4.67-6.23-6.23-3.11-4.67-4.67-6.23c-3.11-1.56-9.34-7.78-10.9-6.22s-6.23-4.68-7.79,0a39.61,39.61,0,0,1-3.11,7.78c-1.56,3.12,3.11,4.67,0,6.23-3.12,0-1.56-1.56-6.23,1.56s-4.67,0-6.23,3.11a19.21,19.21,0,0,1-3.11,4.67s0,4.68-1.56,6.23-9.34,4.67-7.79,4.67,4.68,4.68,4.68,4.68l-1.56,6.22s-7.79,0-7.79,1.56a64.41,64.41,0,0,0-4.67,6.23l-1.56,4.67a1.52,1.52,0,0,0-1.55,1.49v.07c0,3.11-3.12,4.67-3.12,4.67s-9.34,6.23-10.9,7.79,0,6.23,0,6.23l-3.11,9.34c-1.56,0,0,4.67,0,6.23s6.23,7.78,6.23,7.78a31.85,31.85,0,0,1,1.55,7.79c0,3.11-6.23,10.9-6.23,10.9s3.12,6.23,7.79,3.12c4.67-1.56,24.92-4.68,24.92-4.68s9.34,6.23,12.45,4.68c1.56-1.56,14-4.68,15.58-3.12s14,1.56,17.13,3.12,9.34,0,9.34,0h9.34c4.67,1.55,57.62-1.56,57.62-1.56l79.42-3.12h62.29l67-1.55,34.26-1.56,17.13,1.56s7.79,1.55,10.9,1.55c3.12,1.56,4.67,15.58,4.67,20.25s0,6.23,1.56,10.9,6.23,7.78,12.46,7.78h513.88s4.68-3.11,6.24,1.56,3.11,3.12,4.67,6.23,0,7.79,0,10.9c0,4.67-1.56,7.79-1.56,12.46s3.11,17.13,3.11,18.69,4.68,3.11,9.35,4.67c3.11,1.55,10.9,1.55,17.12,1.55,6.23,1.56,15.58,1.56,15.58,1.56h10.9c1.56,0,9.34-3.11,9.34-3.11s15.58-62.29,15.58-73.19c0-9.35,4.67-112.12-7.79-149.5" transform="translate(0.03 0)"/><path class="cls-1" d="M286.54,1172.6s17.13,17.13,20.24,15.57,12.46-7.79,14-7.79c1.55-1.55-1.56-10.9,7.78-10.9a18.08,18.08,0,0,1,14,6.23s-1.56,3.12,3.11,3.12,12.53-3.12,12.53-3.12h6.23l1.55,3.12h4.68l10.9,4.67s1.56,3.11,3.11,3.11c3.12,0,0,1.56,3.12,0,1.56-1.55,3.11-6.23,6.23-6.23h7.78l6.23,3.12,6.23,3.11h4.67l4.67,7.79-3.11,4.67-1.56,9.34c6.23,0,10.9-9.34,10.9-9.34s0-4.67,3.12-4.67,3.11-1.56,6.23,0,4.67,1.56,7.78,3.11h9.35s1.55-3.11,6.22,0c4.68,1.56,18.69,10.91,18.69,10.91l18.69,6.22s1.56,0,3.11,3.12a11.62,11.62,0,0,0,4.68,4.67l3.11,4.67s1.56-6.23,3.11-4.67a21.76,21.76,0,0,0,6.23,4.67c3.12,1.56,4.67,1.56,7.79,3.12a19.21,19.21,0,0,1,4.67,3.11s3.12,1.56,3.12,3.12v6.22s-3.12,1.56,0,4.68a10,10,0,0,0,7.78,3.11c1.56,1.56,6.23,0,6.23,0s12.46-1.56,15.57-3.11,6.23-1.56,7.79-4.68c1.56-4.67,0-4.67,3.11-6.22s1.56-3.12,4.67-4.68,15.58-3.11,15.58-4.67l6.23,4.67h7.78c3.12,0-3.11,1.56,3.12,0a38.7,38.7,0,0,0,10.9-4.67h6.23a2.15,2.15,0,0,0,3,.07l.07-.07c1.56-1.55,3.12,1.56,4.67,0s-1.55-1.55,1.56-1.55,4.67-3.12,6.23-3.12,6.23-3.11,7.79-3.11h1.55l3.12-1.56,3.11,1.56,4.67,3.11s1.56,1.56,6.23,0,7.79,0,7.79,0h9.34l10.9,4.67v7.81l4.67,6.23,4.68,4.67s-1.56,14-3.12,14-6.23,10.9-6.23,10.9l-10.9,7.79-7.78,4.67,152.6,42L1059,1280l-3.12-10.9,3.12-10.9-1.56-3.12s3.11,0,1.56-3.11-3.12-4.67,0-6.23a26.59,26.59,0,0,1,6.23-4.67h17.13l-3.12,7.83s1.56,6.23,1.56,9.35v9.34c0,3.11-1.56,15.57-1.56,15.57l-9.34,4.67c-3.12,1.56-6.23,0-9.35,1.56-1.55,1.56-3.11,1.56-7.78,1.56s-10.9,1.56-12.46,3.11-4.67,1.56-4.67,1.56-1.56-1.56-3.12,1.56l-1.55,3.11c-1.56,3.12-1.56,1.56,0,6.23s-1.56,6.23-1.56,7.79-1.56,7.78,0,7.78h1.56s-1.56,3.12-1.56,4.67v10.9l-3.11,3.12c-3.12,1.56-6.23,4.67-9.35,4.67-1.55,0-1.55-1.56-4.67,0s-26.47,0-26.47,0-12.46,3.12-15.57,0c-1.56-1.56-23.36-1.56-24.92-1.56s-32.7,1.56-32.7,1.56l-12.46-4.67s-15.57-1.56-18.69-1.56h-32.7c-10.9,0-24.92,1.56-24.92,1.56s1.56,1.56-3.11,3.11-21.8-3.11-29.59,0-21.8,4.68-28,4.68H658.72L294.32,1361l-15.57-40.48s1.56-31.15,3.12-40.49-15.58-28-12.46-35.82c4.67-6.23,7.78-29.59,7.78-32.7s-6.23-21.8-6.23-26.47c10.9,1.55,15.58-12.46,15.58-12.46" transform="translate(0.03 0)"/><path class="cls-1" d="M2078.92,1361c0,1.56-1.56,4.68-4.68,4.68H2040c-1.56,0-4.67-1.56-4.67-4.68v-12.46c0-1.55,1.55-4.67,4.67-4.67h34.21c1.56,0,4.68,1.56,4.68,4.67Zm-15.58,46.72c0,1.56-1.55,4.67-4.67,4.67h-49.83c-1.56,0-4.67-1.55-4.67-4.67v-17.13c0-1.56,1.56-4.67,4.67-4.67l56.06-1.56c1.56,0,4.67,1.56,4.67,4.67Zm-28,107.45c0,1.56-1.56,4.67-4.68,4.67H1998c-1.55,0-4.67-1.56-4.67-4.67v-21.8c0-1.56,1.55-4.67,4.67-4.67l37.38-1.56c1.55,0,4.67,1.56,4.67,4.67Zm-24.92,40.49c0,1.56-1.56,4.67-4.67,4.67h-53c-1.56,0-4.67-1.56-4.67-4.67v-20.25c0-1.55,1.56-4.67,4.67-4.67h53c1.55,0,4.67,1.56,4.67,4.67Zm-9.34,40.49c0,1.55-1.56,4.67-4.67,4.67H1952.8c-1.56,0-4.67-1.56-4.67-4.67v-23.36c0-1.56,1.56-4.67,4.67-4.67h51.4c1.56,0,4.67,1.55,4.67,4.67Zm-29.59,48.27c0,1.56-1.56,4.67-4.67,4.67h-18.69c-1.56,0-4.67-1.56-4.67-4.67v-21.8c0-1.56,1.55-4.67,4.67-4.67h31.14c1.56,0,4.67,1.55,4.67,4.67Zm-29.59-88.76c0,1.56-1.56,4.67-4.67,4.67h-53c-1.56,0-4.67-1.56-4.67-4.67v-20.25c0-1.55,1.56-4.67,4.67-4.67h53c1.55,0,4.67,1.56,4.67,4.67Zm0,40.49c0,1.55-1.56,4.67-4.67,4.67h-84.09c-1.56,0-4.67-1.56-4.67-4.67v-23.36c0-1.56,1.55-4.67,4.67-4.67h84.06c1.55,0,4.67,1.55,4.67,4.67ZM1898.3,1646v-21.8c0-1.56,1.55-4.68,4.67-4.68h31.14c1.56,0,4.67,1.56,4.67,4.68V1646c0,1.55-1.55,4.67-4.67,4.67H1903c-3.12-1.56-4.67-3.12-4.67-4.67m32.7,40.49c0,1.55-1.56,4.67-4.67,4.67h-57.62c-1.56,0-4.67-1.56-4.67-4.67v-20.25c0-1.55,1.56-4.67,4.67-4.67h63.85c1.55,0,4.67,1.56,4.67,4.67Zm-73.19,0c0,1.55-1.56,4.67-4.67,4.67H1795.5c-1.56,0-4.67-1.56-4.67-4.67v-20.25c0-1.55,1.56-4.67,4.67-4.67h57.62c1.56,0,4.67,1.56,4.67,4.67Zm-71.63,1.55c0,1.56-1.56,4.67-4.67,4.67h-56.07c-1.55,0-4.67-1.55-4.67-4.67V1667.8c0-1.56,1.56-4.67,4.67-4.67h56.07c1.55,0,4.67,1.56,4.67,4.67Zm-70.08-1.55c0,1.55-1.56,4.67-4.67,4.67h-70.08c-1.55,0-4.67-1.56-4.67-4.67v-20.25c0-1.55,1.56-4.67,4.67-4.67h70.08c1.56,0,4.67,1.56,4.67,4.67Zm-87.21,0c0,1.55-1.55,4.67-4.67,4.67h-70.07c-1.56,0-4.67-1.56-4.67-4.67l-1.56-20.25c0-1.55,1.56-4.67,4.67-4.67h71.61c1.56,0,4.67,1.56,4.67,4.67Zm-84.08-59.18c0-1.56,1.55-4.67,3.11-4.67l49.83-1.56c1.56,0,3.12,1.56,3.12,4.67v23.36c0,1.56-1.56,4.68-3.12,4.68H1551c-1.55,0-3.11-1.57-3.11-4.68Zm-3.12-28-4.67-21.8c0-1.56,1.56-4.67,4.67-4.67l60.73-1.56c1.56,0,4.67,1.56,4.67,4.67v23.36c0,1.56-1.55,4.67-4.67,4.67h-56.06c-3.11-1.56-4.67-3.11-4.67-4.67m-14,112.12c-3.12,1.56-7.79,6.23-10.91,6.23L1498.1,1727c-4.67,0-1.56-4.68-3.12-6.23,0-1.56-3.11-9.35-3.11-10.9-1.56-1.56-1.56-15.58-1.56-17.14,0,0,4.67-3.11,6.23-7.78,3.12-3.12,4.67-3.12,7.79-4.67s12.45-1.56,17.12-1.56c4.68-1.56,7.79-6.23,9.35-6.23s4.67,1.56,6.23,4.67c1.56,1.56,0,7.79,0,14s1.56,12.46,1.56,14c-1.56,3.12-7.79,6.23-10.9,6.23m-43.61,9.35c0,6.22-3.11,7.78-6.23,7.78s-4.67,4.67-9.34,4.67h-12.46c-9.34,0-14,3.12-17.13,4.67s-21.8,1.56-24.91,0-6.23,0-7.79-1.55,0-4.67-1.56-9.35-1.55-12.45-3.11-15.57c-3.12-9.34,3.11-7.78,7.79-10.9s6.22,0,12.45-1.56c6.23,0,4.67-1.55,9.34-1.55,4.68-1.56,10.91-1.56,15.58-3.12s14-3.11,18.69-4.67,9.34-3.11,12.45-3.11,6.23,4.67,6.23,9.34,3.11,6.22,1.56,10.9c-3.12,3.12-1.56,7.79-1.56,14m-96.55-48.28c-1.55-3.11,0-12.46,0-12.46l3.12-1.56s20.24-3.11,21.8-4.66,20.24-7.79,20.24-7.79h24.92l4.67,6.23v17.13c-1.56,3.11,0,3.11,0,7.78s-1.56,0-3.11,0-1.56,1.56-6.23,1.56-4.67,1.56-7.79,1.56h-12.46c-1.56,0-9.34,3.11-14,4.67-3.12,1.56-15.57,1.56-17.13,1.56-3.12,0-4.67-1.56-7.79-3.12-6.23-3.11-4.67-7.79-6.23-10.9m-3.11,56.06c0,3.12-1.56,4.67-3.12,10.9-1.55,4.67-1.55,1.56-3.11,1.56s-9.34,3.11-10.9,3.11H1358c-4.68,0-21.81,3.12-23.36,3.12h-18.69c-6.23,0-6.23,1.56-9.34,0-1.56-1.56-6.23-4.68-6.23-6.23s1.56-6.23,1.56-7.79-1.56-7.78-1.56-10.9a27.17,27.17,0,0,1,1.56-7.78c3.11-4.67,7.78,0,14-3.12,4.67-3.11,9.34,0,14,0,6.23,0,6.23,0,14-1.55s12.46-1.56,18.69-4.68,12.46,0,14,0a6.78,6.78,0,0,1,4.67,1.56s0,7.79,1.56,10.9c3.12,4.67,1.56,6.23,1.56,10.9m-85.65-51.39c-1.56-3.11,1.56-7.78,1.56-7.78H1305l1.56-1.56s7.78-1.56,9.34-3.11h15.57s14-3.12,15.58-4.68,17.12,0,17.12,0l9.35,1.56a54.87,54.87,0,0,1,1.55,10.9c0,4.67,1.56,12.46,1.56,14s-4.67,4.67-4.67,4.67l-3.11,3.11s-14,1.56-17.13,1.56-3.12,1.56-3.12,1.56a49.51,49.51,0,0,0-10.9,1.56c-6.23,1.55-6.23,0-21.8,0H1303.4c-6.23,0-1.55-1.56-1.55-3.12s0-6.23-1.56-9.34c-1.56-4.68,0-6.23-1.56-9.35m-10.9-6.22v9.34c0,6.23-1.56,4.67-1.56,6.23s-1.55,4.67-3.11,7.78c-1.56,1.56-1.56,1.56-4.67,3.12-4.67,1.56-6.23,0-10.9,1.56-4.67,0-3.12,1.55-6.23,1.55-1.56,0-9.35,0-14-1.55s-7.78,0-14,0h-6.22a16.9,16.9,0,0,1-7.79-1.56,21.76,21.76,0,0,1-4.67-6.23c-1.56-3.12,0-3.12-1.56-6.23s0-10.9,0-10.9l9.35-1.56a70.46,70.46,0,0,0,7.78-3.11c1.56-1.56,4.68,0,7.79-1.56s7.79,0,10.9,0,20.24-1.56,24.92-1.56,10.9,3.12,14,4.68c3.12,0,0-1.56,0,0m-6.23,51.38q-2.34,2.34,0,14c1.56,7.78-6.23,9.34-9.34,9.34s-9.34,3.12-12.46,3.12c-3.11-1.56-12.46,1.55-12.46,1.55s-7.78-6.23-9.34-6.23-3.11-6.22-4.68-7.78v-9.34s-3.11-6.23-1.55-9.35,9.34,0,9.34-1.56h9.35a44,44,0,0,0,12.46-1.55,23.09,23.09,0,0,1,9.34-1.56c3.11,0,6.23,0,9.34,1.56v7.78m-60.73,14V1744a62.91,62.91,0,0,0-6.23,4.68c-3.11,1.55-1.56,0-9.34,0h-14c-4.67,0-10.9-3.12-14-3.12-1.56,0-1.56-4.67-3.12-6.23s-1.56-4.67-3.11-6.23,0-12.45,0-12.45,1.55-1.56,6.23-3.12c3.11-1.56,1.56,0,4.67-1.56s9.34,0,10.9,1.56,9.34,0,12.46,0h14l1.56,3.12v15.57m-63.85-40.49h-6.23c-1.55,0-3.11-1.56-4.67-3.12s-3.11-14-3.11-14v-9.34h1.55s4.68,0,6.23-1.56,1.56,0,4.67,0,3.12,0,6.23,1.56h18.69c1.56,0,15.57-3.12,17.13-1.56s3.12,6.23,3.12,10.9v6.28c0,1.56,0,4.67-1.56,6.23,0,1.55-1.56,4.67-1.56,6.23s-4.67,3.11-6.23,1.56c0,0-7.78,1.55-10.9,0s-10.9,1.55-14,0c-1.55-1.56-3.11-1.56-9.34-3.12m1.56,32.7c-1.56,3.12,1.56,7.79,0,10.9s-1.56,3.11-3.12,4.67c-1.55,0-4.67,1.56-10.9,1.56-4.67-1.56-6.23,1.56-10.9,0-3.11-1.56-6.23-1.56-12.46-3.12-4.67-1.55-10.9-1.55-14-3.11s-4.67-1.56-7.79-1.56-3.11-1.55-4.67-3.11c-1.55-3.11,0-3.11,0-4.67v-4.67s0-7.79,1.56-9.35l9.34-1.55a66.19,66.19,0,0,0,7.79,3.11c3.11,1.56,6.23,1.56,12.46,0,4.67-1.56,4.67,0,6.23-1.56s10.9,0,15.57,0,1.56,1.56,3.11,1.56,4.67,1.56,9.35,1.56,0,3.11,0,4.67c-1.56,1.56,0,1.56-1.56,4.67m-87.21-43.6s-6.22-3.12-7.78-3.12c0,0,1.56-7.78,1.56-9.34,1.55-1.56,0-9.34,0-9.34s3.11-1.56,3.11-3.12h14c4.68,0,7.79,0,9.35,1.56s18.68-1.56,21.8,0,7.78,0,7.78,0,7.79,1.56,9.35,1.56,3.11,3.11,1.56,4.67,0,7.78,0,9.34v6.23s-1.56,4.67-3.12,6.23c0,0-3.11,1.56-4.67,1.56s-10.9,0-14-1.56h-9.34l-18.69-3.11Zm6.23,37.37s-10.9,9.35-12.45,9.35-9.35-1.56-10.91-1.56-12.45,0-17.12-3.12c-6.23-1.55-7.79-3.11-10.9-3.11s-4.68,0-6.23-1.56-4.68-3.11-4.68-7.78,1.56-3.12,1.56-6.23,1.56-10.9,1.56-12.46l3.11-3.12s10.9,4.68,14,6.23c1.56,1.56,26.47,3.12,26.47,3.12s10.9,3.11,10.9,4.67,6.23,3.12,6.23,3.12c1.56-1.56-1.56,12.45-1.56,12.45m-73.19-54.5a7.53,7.53,0,0,0-6.23,0c-1.55,0-3.11-6.23-3.11-7.79v-9.34c0-1.56,3.11-9.35,3.11-9.35h14l1.56,1.56a70.54,70.54,0,0,1,12.45,1.56,58.78,58.78,0,0,1,12.46,1.56l12.46,3.11c1.56,1.56,1.56,10.9,0,12.46-1.56,3.12-1.56,7.79-3.11,10.9-1.56,1.56-1.56,1.56-7.79,1.56h-9.34c-4.67-1.56-3.12,0-4.67,0s-10.91-3.11-15.58-3.11c-1.55-1.56-3.11-1.56-6.23-3.12m0,31.15c0,3.11-1.55,6.22-3.11,9.34s-1.56,1.56-4.67,1.56-6.23,1.55-10.9,0-6.23,0-7.79,0-10.9-1.56-14-1.56H956.2c-1.56,0-4.67-1.56-7.79-3.12s-1.55-1.55-1.55-1.55-3.12,0-4.68-1.56,1.56-7.79,3.12-9.35,0-7.78,0-7.78a19.54,19.54,0,0,1,4.67-3.12c3.12-1.55,3.12,0,6.23,1.56,3.11,0,7.79,1.56,9.34,1.56s12.46,1.56,17.13,1.56,9.35,0,10.9,1.55c1.56,0,9.35,1.56,10.9,3.12,1.56-1.56,0,4.67,0,7.79m-67-208.68H903.2c-1.56,0-4.67-1.55-4.67-4.67V1456c0-1.56,1.56-4.68,4.67-4.68l37.38-1.55c1.55,0,4.67,1.55,4.67,4.67L943.69,1484c-3.11,4.68-4.67,6.23-6.23,6.23m-3.11,42c0,1.56-1.56,4.67-4.67,4.67H881.4c-1.56,0-4.67-1.56-4.67-4.67v-24.92c0-1.55,1.56-4.67,4.67-4.67l53-1.55c1.56,0,4.67,1.55,4.67,4.67Zm-3.12,56.06c0,1.56-1.55,4.67-4.67,4.67H858c-1.56,0-4.67-1.56-4.67-4.67v-18.69c0-1.56,1.56-4.67,4.67-4.67H931.2c1.56,0,4.68,1.56,4.68,4.67Zm-1.55,40.49c0,1.56-1.56,4.67-4.67,4.67H893.86c-1.56,0-4.67-1.56-4.67-4.67v-21.8c0-1.56,1.55-4.68,4.67-4.68l32.7-1.55c1.56,0,4.67,1.55,4.67,4.67ZM923.45,1674c0,1.55-1.56,4.67-4.67,4.67H861.2c-1.56,0-4.68-1.56-4.68-4.67v-18.69c0-1.55,1.56-4.67,4.68-4.67h60.73c1.56,0,4.67,1.56,4.67,4.67Zm-6.23,45.16c0,1.56-1.56,4.67-4.68,4.67H839.36c-1.56,0-4.68-1.56-4.68-4.67v-18.69c0-1.55,1.56-4.67,4.68-4.67l76.3-1.56c1.56,0,4.67,1.56,4.67,4.68Zm-146.38-37.38c-1.56,0-4.67-1.55-4.67-4.67v-18.69c0-1.55,1.55-4.66,4.67-4.66H844c1.55,0,4.67,1.55,4.67,4.66v18.69c0,1.56-1.56,4.67-4.67,4.67Zm52.94,38.94c0,1.55-1.55,4.67-4.67,4.67h-42c-1.56,0-4.68-1.56-4.68-4.67V1702c0-1.56,1.56-4.67,4.68-4.67h42c1.56,0,4.67,1.56,4.67,4.67Zm-68.51-37.38c0,1.56-1.56,4.67-4.68,4.67H686.75c-1.56,0-4.67-1.55-4.67-4.67v-17.13c0-1.55,1.55-4.67,4.67-4.67H752.2c1.56,0,4.67,1.56,4.67,4.67v17.13Zm0,40.49c0,1.56-1.56,4.67-4.68,4.67h-42c-1.56,0-4.67-1.56-4.67-4.67v-18.69c0-1.55,1.55-4.67,4.67-4.67H752.2c1.56,0,4.67,1.56,4.67,4.67v18.76Zm-54.51,0c0,1.56-1.55,4.67-4.67,4.67H636.92c-1.56,0-4.68-1.56-4.68-4.67v-18.69c0-1.55,1.56-4.67,4.68-4.67h59.17c1.56,0,4.67,1.56,4.67,4.67Zm-77.86,1.56c0,1.56-1.56,4.67-4.67,4.67H559.05c-1.55,0-4.67-1.56-4.67-4.67v-18.69c0-1.56,1.56-4.67,4.67-4.67H618.2c1.55,0,4.67,1.56,4.67,4.67Zm-93.43-31.15c-1.56,0-4.68-1.56-4.68-4.67v-18.67c0-1.56,1.56-4.68,4.68-4.68h65.4c1.56,0,4.67,1.56,4.67,4.68v18.68c0,1.56-1.55,4.67-4.67,4.67ZM545,1727c0,1.55-1.56,4.67-4.67,4.67H481.2c-1.55,0-4.67-1.56-4.67-4.67v-18.69c0-1.56,1.56-4.67,4.67-4.67h59.18c1.55,0,4.67,1.55,4.67,4.67Zm-88.76-31.15c-1.56,0-4.68-1.56-4.68-4.67v-18.69c0-1.55,1.56-4.67,4.68-4.67h49.83c1.55,0,4.67,1.56,4.67,4.67v18.69c0,1.55-1.56,4.67-4.67,4.67ZM418.9,1641.3v-24.89c0-1.55,1.56-4.67,4.67-4.67h53c1.56,0,4.67,1.56,4.67,4.67v24.91c0,1.56-1.56,4.68-4.67,4.68h-53q-4.67,0-4.67-4.68m-28-51.38-4.7-15.57c0-1.56,1.56-4.68,4.67-4.68h35.82c1.56,0,4.67,1.56,4.67,4.68v15.54c0,1.55-1.56,4.67-4.67,4.67H395.54q-4.67,0-4.67-4.67m-17.13-34.26V1535.4c0-1.55,1.56-4.67,4.67-4.67h42c1.56,0,4.67,1.56,4.67,4.67v20.25c0,1.56-1.56,4.67-4.67,4.67h-42c-3.11-1.56-4.66-3.12-4.67-4.67m-3.11-42h-10.9c-1.56,0-4.68-1.55-4.68-4.67l-7.78-32.7c0-1.56,1.56-4.67,4.67-4.67h18.69c1.56,0,4.67,1.56,4.67,4.67V1509c0,3.12-1.56,4.67-4.67,4.67m-38.93-65.4v-18.69c0-1.55,1.55-4.67,4.67-4.67h67c1.56,0,4.67,1.56,4.67,4.67v18.69c0,1.56-1.56,4.67-4.67,4.67h-67c-3.12-1.56-4.67-3.11-4.67-4.67m-6.23-43.61v-24.93c0-1.56,1.55-4.67,4.67-4.67h38.93c1.56,0,4.67,1.55,4.67,4.67v24.91c0,1.56-1.55,4.68-4.67,4.68H330.14c-3.12-1.56-4.67-3.12-4.67-4.68m56.06-23.35c0-1.56,1.56-4.68,4.67-4.68h56.06c1.56,0,4.67,1.56,4.67,4.68v18.64c0,1.56-1.56,4.67-4.67,4.67H386.2c-1.56,0-4.67-1.55-4.67-4.67Zm87.2,0c0-1.56,1.56-4.68,4.68-4.68H548.2c1.56,0,4.67,1.56,4.67,4.68v21.8c0,1.55-1.55,4.67-4.67,4.67H471.9c-1.56,0-4.67-1.56-4.67-4.67v-21.8Zm105.9-6.23c0-1.56,1.55-4.67,4.67-4.67h51.39c1.55,0,4.67,1.56,4.67,4.67v21.8c0,1.56-1.56,4.67-4.67,4.67H579.3c-1.56,0-4.67-1.56-4.67-4.67Zm74.74-4.67c0-1.56,1.56-4.67,4.68-4.67h62.29c1.55,0,4.67,1.55,4.67,4.67v28c0,1.56-1.56,4.68-4.67,4.68H654.05c-1.56,0-4.68-1.56-4.68-4.68Zm119.91,42c1.56,0,4.67,1.56,4.67,4.67v21.87c0,1.55-1.55,4.66-4.67,4.66H700.76c-1.55,0-4.67-1.55-4.67-4.66V1417.1c0-1.55,1.56-4.67,4.67-4.67Zm-29.59-42c0-1.56,1.56-4.67,4.67-4.67h74.75c1.56,0,4.67,1.55,4.67,4.67v18.68c0,1.56-1.55,4.67-4.67,4.67H744.36c-1.55,0-4.67-1.55-4.67-4.67ZM837.8,1414v20.24c0,1.56-1.56,4.68-4.67,4.68H783.3c-1.56,0-4.68-1.56-4.68-4.68V1414c0-1.56,1.56-4.67,4.68-4.67h49.83c3.11,0,4.66,1.56,4.67,4.67M816,1493.39c-1.56,0-4.68-1.56-4.68-4.67v-29.59c0-1.56,1.56-4.67,4.68-4.67h70.07c1.56,0,4.67,1.56,4.67,4.67v29.59c0,1.55-1.55,4.67-4.67,4.67Zm-17.13,51.39c-1.56,0-4.67-1.56-4.67-4.67v-24.92c0-1.56,1.55-4.67,4.67-4.67h54.5c1.56,0,4.67,1.56,4.67,4.67v24.92c0,1.55-1.56,4.67-4.67,4.67Zm6.23,65.4c0-1.56,1.55-4.67,4.67-4.67H881.4c1.56,0,4.67,1.56,4.67,4.67V1632c0,1.56-1.56,4.67-4.67,4.67H809.77c-1.56,0-4.67-1.55-4.67-4.67Zm-46.72-15.57c-1.56,0-4.67-1.56-4.67-4.67v-18.69c0-1.56,1.56-4.67,4.67-4.67h81c1.55,0,4.67,1.56,4.67,4.67v18.66c0,1.55-1.56,4.67-4.67,4.67Zm-40.49,18.68c0-1.55,1.56-4.67,4.67-4.67H794.2c1.55,0,4.67,1.56,4.67,4.67v21.81c0,1.55-1.56,4.67-4.67,4.67H722.56c-1.55,0-4.67-1.56-4.67-4.67Zm-42-14c-1.56,0-4.68-1.56-4.68-4.67V1569.7c0-1.55,1.56-4.67,4.68-4.67l62.29-1.56c1.55,0,4.67,1.56,4.67,4.68l-1.56,26.47c0,1.56-1.56,4.67-4.67,4.67Zm-28,43.6c-1.56,0-4.67-1.56-4.67-4.67v-21.8c0-1.55,1.55-4.67,4.67-4.67h54.5c1.56,0,4.67,1.56,4.67,4.67v21.8c0,1.56-1.56,4.67-4.67,4.67Zm-45.16,20.25c0-1.56,1.55-4.68,4.67-4.68h63.8c1.56,0,4.68,1.56,4.68,4.68v23.36c0,1.55-1.56,4.67-4.68,4.67H607.33c-1.56,0-4.67-1.56-4.67-4.67ZM562.2,1618c0-1.56,1.55-4.67,4.67-4.67H632.2c1.56,0,4.68,1.56,4.68,4.67v24.94c0,1.56-1.56,4.67-4.68,4.67H566.8c-1.56,0-4.67-1.55-4.67-4.67ZM517,1594.61c-1.56,0-4.67-1.56-4.67-4.67v-17.13c0-1.56,1.55-4.67,4.67-4.67h67c1.56,0,4.67,1.55,4.67,4.67v17.1c0,1.55-1.56,4.67-4.67,4.67Zm-31.15,29.59c0-1.56,1.56-4.68,4.68-4.68H551.3c1.55,0,4.67,1.56,4.67,4.68v24.91c0,1.56-1.56,4.68-4.67,4.68H490.54c-1.56,0-4.68-1.56-4.68-4.68Zm-42-49.83c0-1.56,1.55-4.68,4.67-4.68h54.5c1.56,0,4.67,1.56,4.67,4.68v17.12c0,1.56-1.55,4.68-4.67,4.68h-54.5c-1.56,0-4.67-1.56-4.67-4.68Zm-4.69-46.72c0-1.56,1.55-4.67,4.67-4.67h77.86c1.56,0,4.67,1.55,4.67,4.67v28c0,1.55-1.56,4.67-4.67,4.67H443.82c-1.56,0-4.67-1.56-4.67-4.67Zm15.52-60.74c1.56,0,4.67,1.55,4.67,4.67v38.93c0,1.56-1.56,4.67-4.67,4.67H392.43c-1.56,0-4.67-1.56-4.67-4.67v-38.93c0-1.56,1.56-4.67,4.67-4.67Zm56.06-26.48c0,1.56-1.56,4.67-4.67,4.67H423.57c-1.55,0-4.67-1.56-4.67-4.67v-15.52c0-1.56,1.56-4.67,4.67-4.67h82.54c1.55,0,4.67,1.56,4.67,4.67ZM545,1466.91c1.56,0,4.67,1.55,4.67,4.67v29.58c0,1.56-1.56,4.68-4.67,4.68H478c-1.56,0-4.67-1.56-4.67-4.68v-29.58c0-1.56,1.55-4.67,4.67-4.67Zm57.62-23.37c0,1.57-1.56,4.68-4.67,4.68H527.91c-1.56,0-4.67-1.56-4.67-4.68v-23.35c0-1.56,1.55-4.67,4.67-4.67H598c1.55,0,4.67,1.55,4.67,4.67ZM626,1463.79c1.56,0,4.68,1.56,4.68,4.67v29.59c0,1.56-1.56,4.67-4.68,4.67H563.72c-1.55,0-4.67-1.56-4.67-4.67v-29.59c0-1.55,1.56-4.67,4.67-4.67Zm56.07-26.47c0,1.56-1.56,4.67-4.68,4.67H618.2c-1.56,0-4.67-1.56-4.67-4.67v-18.69c0-1.56,1.55-4.67,4.67-4.67h59.2c1.56,0,4.68,1.56,4.68,4.67ZM632.2,1549.45c-1.55,0-4.67-1.56-4.67-4.67v-23.36c0-1.56,1.56-4.67,4.67-4.67h62.29c1.56,0,4.68,1.55,4.68,4.67v23.36c0,1.55-1.56,4.67-4.68,4.67Zm-93.43,4.67c-1.56,0-4.67-1.56-4.67-4.67v-28c0-1.56,1.55-4.67,4.67-4.67H612c1.56,0,4.67,1.56,4.67,4.67v28c0,1.56-1.56,4.67-4.67,4.67ZM598,1571.25c0-1.56,1.55-4.67,4.67-4.67h53c1.56,0,4.67,1.56,4.67,4.67v18.66c0,1.55-1.55,4.67-4.67,4.67H602.66c-1.56,0-4.67-1.56-4.67-4.67Zm115.25-79.42c0,1.56-1.56,4.67-4.67,4.67H649.37c-1.55,0-4.67-1.55-4.67-4.67v-23.36c0-1.55,1.56-4.67,4.67-4.67h59.18c1.56,0,4.67,1.56,4.67,4.67Zm12.46-3.11v-29.59c0-1.56,1.56-4.67,4.67-4.67H788c1.55,0,4.67,1.56,4.67,4.67v29.59c0,1.55-1.56,4.67-4.67,4.67H730.33c-3.11,0-4.67-3.12-4.67-4.67m43.6,24.91c1.56,0,4.67,1.56,4.67,4.67v26.48c0,1.55-1.55,4.67-4.67,4.67H711.64c-1.55,0-4.67-1.56-4.67-4.67V1518.3c0-1.55,1.56-4.67,4.67-4.67ZM844,1410.91c0-1.56,1.55-4.68,4.67-4.68h42c1.56,0,4.68,1.56,4.68,4.68v21.8c0,1.55-1.56,4.67-4.68,4.67h-42c-1.56,0-4.67-1.56-4.67-4.67Zm3.11-53c0-1.56,1.56-4.67,4.67-4.67h54.51c1.55,0,4.67,1.55,4.67,4.67v28c0,1.55-1.56,4.67-4.67,4.67H851.81c-1.55,0-4.67-1.56-4.67-4.67Zm67,46.71h29.59c1.56,0,4.67,1.56,4.67,4.68v24.91c0,1.56-1.55,4.68-4.67,4.68H914.1c-1.56,0-4.67-1.56-4.67-4.68V1409.3q0-4.68,4.67-4.68m21.81-40.48c0-1.56,1.55-4.68,4.67-4.68H998.2c1.56,0,4.68,1.56,4.68,4.68v18.69c0,1.55-1.56,4.66-4.68,4.66H940.59c-1.56,0-4.67-1.55-4.67-4.66Zm87.2,1.56c0-1.56,1.56-4.68,4.67-4.68h62.29c1.56,0,4.67,1.56,4.67,4.68v12.45c0,1.56-1.55,4.68-4.67,4.68h-62.29c-1.55,0-4.67-1.56-4.67-4.68Zm21.8-56.07a7.36,7.36,0,0,1,6.91-7.78,6.46,6.46,0,0,1,.88,0H1101a7.36,7.36,0,0,1,7.79,6.9,6.46,6.46,0,0,1,0,.88v6.28a7.36,7.36,0,0,1-6.91,7.78,6.46,6.46,0,0,1-.88,0H1052.7a7.37,7.37,0,0,1-7.79-6.9,6.46,6.46,0,0,1,0-.88Zm51.39-48.27a7.36,7.36,0,0,1,6.9-7.79,6.61,6.61,0,0,1,.89,0h48.27a7.36,7.36,0,0,1,7.79,6.9,6.61,6.61,0,0,1,0,.89v6.23a7.36,7.36,0,0,1-6.91,7.78,6.46,6.46,0,0,1-.88,0h-48.27a7.35,7.35,0,0,1-7.79-6.88,6.76,6.76,0,0,1,0-.9Zm77.86,0a7.36,7.36,0,0,1,6.9-7.79,6.61,6.61,0,0,1,.89,0h48.25a7.36,7.36,0,0,1,7.79,6.9,6.61,6.61,0,0,1,0,.89v6.23a7.34,7.34,0,0,1-6.89,7.78,6.76,6.76,0,0,1-.9,0h-48.27a7.37,7.37,0,0,1-7.79-6.9,6.46,6.46,0,0,1,0-.88Zm84.09-4.67a7.36,7.36,0,0,1,6.9-7.79,6.61,6.61,0,0,1,.89,0h48.27a7.36,7.36,0,0,1,7.79,6.9,6.61,6.61,0,0,1,0,.89v10.9a7.35,7.35,0,0,1-6.9,7.79,6.61,6.61,0,0,1-.89,0H1266a7.36,7.36,0,0,1-7.79-6.9,6.61,6.61,0,0,1,0-.89Zm79.42,0a7.36,7.36,0,0,1,6.9-7.79,6.61,6.61,0,0,1,.89,0h48.27a7.36,7.36,0,0,1,7.79,6.9,6.61,6.61,0,0,1,0,.89v7.78a7.35,7.35,0,0,1-6.9,7.79,6.61,6.61,0,0,1-.89,0h-48.27a7.36,7.36,0,0,1-7.79-6.9,6.61,6.61,0,0,1,0-.89Zm88.76,42c1.56,0,4.67,1.56,4.67,4.67v12.55c0,1.55-1.55,4.66-4.67,4.66h-54.5c-1.56,0-4.67-1.55-4.67-4.66v-12.47c0-1.55,1.56-4.67,4.67-4.67Zm-7.78-43.6a7.37,7.37,0,0,1,6.9-7.79,6.46,6.46,0,0,1,.88,0h48.28a7.36,7.36,0,0,1,7.78,6.91,6.46,6.46,0,0,1,0,.88v7.82a7.34,7.34,0,0,1-6.89,7.78,6.61,6.61,0,0,1-.89,0h-48.28a7.35,7.35,0,0,1-7.78-6.89,6.61,6.61,0,0,1,0-.89Zm555.93,109c-1.56,0-4.67-1.56-4.67-4.68v-23.3c0-1.56,1.56-4.67,4.67-4.67h49.83c1.56,0,4.67,1.56,4.67,4.67v23.35c0,1.56-1.55,4.68-4.67,4.68Zm-68.52,123c0-1.56,1.56-4.67,4.68-4.67H1973c1.56,0,4.68,1.55,4.68,4.67v21.8c0,1.56-1.56,4.67-4.68,4.67h-62.28c-1.56,0-4.68-1.56-4.68-4.67Zm-45.16-29.59c-1.55,0-4.67-1.55-4.67-4.67v-29.52c0-1.55,1.56-4.67,4.67-4.67h46.72c1.56,0,4.67,1.56,4.67,4.67v29.6c0,1.56-1.55,4.67-4.67,4.67ZM1836,1512c-1.56,0-4.67-1.56-4.67-4.68v-24.91c0-1.56,1.55-4.67,4.67-4.67h57.62c1.55,0,4.67,1.55,4.67,4.67v26.47c0,1.56-1.56,4.67-4.67,4.67H1836Zm-23.36,48.27c-1.56,0-4.67-1.56-4.67-4.67v-26.48c0-1.55,1.56-4.67,4.67-4.67h53c1.55,0,4.67,1.56,4.67,4.67v26.48c0,1.56-1.56,4.67-4.67,4.67Zm-65.4-1.56c-1.56,0-4.67-1.56-4.67-4.67v-24.92c0-1.55,1.55-4.67,4.67-4.67h48.27c1.56,0,4.67,1.56,4.67,4.67v26.48c0,1.56-1.55,4.67-4.67,4.67h-48.3Zm-81,1.56c-1.56,0-4.67-1.56-4.67-4.67V1526c0-1.56,1.55-4.67,4.67-4.67h65.4c1.56,0,4.67,1.56,4.67,4.67v29.59c0,1.56-1.55,4.67-4.67,4.67Zm-53,63.85c0-1.56,1.56-4.68,4.67-4.68H1688c1.56,0,4.67,1.56,4.67,4.68V1649c0,1.56-1.56,4.68-4.67,4.68H1617.9c-1.55,0-4.67-1.56-4.67-4.68Zm67-54.51c1.56,0,4.67,1.56,4.67,4.68v24.91c0,1.56-1.55,4.67-4.67,4.67h-57.61c-1.56,0-4.68-1.56-4.68-4.67V1574.3c0-1.56,1.56-4.68,4.68-4.68Zm-98.1-43.6c0-1.56,1.56-4.67,4.67-4.67h63.85c1.55,0,4.67,1.56,4.67,4.67v24.92c0,1.55-1.56,4.67-4.67,4.67H1586.8c-1.56,0-4.67-1.56-4.67-4.67Zm-7.79-46.72c0-1.55,1.56-4.67,4.67-4.67h31.19c1.56,0,4.67,1.56,4.67,4.67v24.92c0,1.56-1.56,4.67-4.67,4.67h-31.15c-1.55,0-4.67-1.56-4.67-4.67Zm63.86-124.51c0,1.56-1.56,4.67-4.67,4.67H1583.7c-1.56,0-4.68-1.55-4.68-4.67v-20.24c0-1.55,1.56-4.67,4.68-4.67h49.83c1.55,0,4.67,1.56,4.67,4.67Zm32.7,14c1.56,0,4.67,1.56,4.67,4.67v32.7c0,1.56-1.56,4.68-4.67,4.68h-57.6c-1.55,0-4.67-1.56-4.67-4.68v-32.7c0-1.55,1.56-4.67,4.67-4.67Zm51.39-14c0,1.56-1.56,4.67-4.67,4.67h-56.06c-1.56,0-4.67-1.55-4.67-4.67v-20.24c0-1.55,1.55-4.67,4.67-4.67h56.06c1.55,0,4.67,1.56,4.67,4.67Zm26.47,21.8c1.56,0,4.68,1.56,4.68,4.68v21.8c0,1.55-1.56,4.67-4.68,4.67H1691.2c-1.55,0-4.67-1.56-4.67-4.67v-21.8c0-1.56,1.56-4.68,4.67-4.68Zm53-17.13c0,1.56-1.56,4.68-4.67,4.68H1741c-1.55,0-4.67-1.56-4.67-4.68v-28c0-1.56,1.56-4.68,4.67-4.68h56.07c1.56,0,4.67,1.56,4.67,4.68Zm23.35,15.58c1.56,0,4.68,1.55,4.68,4.67v21.8c0,1.56-1.56,4.67-4.68,4.67h-54.5c-1.55,0-4.67-1.56-4.67-4.67v-21.8c0-1.56,1.56-4.67,4.67-4.67Zm37.38-15.58c0,1.56-1.56,4.68-4.67,4.68h-38.93c-1.56,0-4.67-1.56-4.67-4.68V1333c0-1.57,1.55-4.68,4.67-4.68h38.93c1.56,0,4.67,1.56,4.67,4.68Zm-67,99.67c-1.56,0-4.67-1.56-4.67-4.67v-29.55c0-1.56,1.56-4.67,4.67-4.67h46.71c1.55,0,4.67,1.56,4.67,4.67v29.59c0,1.56-1.56,4.67-4.67,4.67Zm-32.7,18.69c0-1.56,1.56-4.67,4.67-4.67h46.74c1.55,0,4.67,1.55,4.67,4.67v26.47c0,1.56-1.56,4.67-4.67,4.67h-46.72c-1.56,0-4.67-1.56-4.67-4.67ZM1727,1457.57c-1.56,0-4.67-1.55-4.67-4.67V1428c0-1.56,1.56-4.68,4.67-4.68h46.72c1.55,0,4.67,1.56,4.67,4.68v24.92c0,1.56-1.56,4.67-4.67,4.67Zm-31.14,24.92c0-1.56,1.56-4.67,4.67-4.67h46.7c1.55,0,4.67,1.55,4.67,4.67V1509c0,1.56-1.56,4.67-4.67,4.67h-46.72c-1.56,0-4.67-1.55-4.67-4.67ZM1660,1459.13c-1.56,0-4.67-1.56-4.67-4.67v-24.92c0-1.55,1.56-4.67,4.67-4.67h53c1.55,0,4.67,1.56,4.67,4.67v24.92c0,1.56-1.56,4.67-4.67,4.67Zm-74.75-1.56c-1.55,0-4.67-1.55-4.67-4.67V1428c0-1.56,1.56-4.68,4.67-4.68h57.62c1.56,0,4.67,1.56,4.67,4.68v24.92c0,1.56-1.56,4.67-4.67,4.67Zm38.93,17.13c0-1.56,1.56-4.67,4.67-4.67h54.51c1.55,0,4.67,1.56,4.67,4.67v35.82c0,1.56-1.56,4.67-4.67,4.67h-54.51c-1.55,0-4.67-1.56-4.67-4.67Zm277.19-101.22c1.56,0,4.67,1.56,4.67,4.67v23.36c0,1.56-1.55,4.67-4.67,4.67h-52.94c-1.56,0-4.68-1.56-4.68-4.67v-23.36c0-1.56,1.56-4.67,4.68-4.67Zm23.36,48.28h46.72c1.55,0,4.67,1.55,4.67,4.67V1456c0,1.55-1.56,4.67-4.67,4.67h-46.72c-1.56,0-4.67-1.56-4.67-4.67v-29.59c0-3.12,1.56-4.67,4.67-4.67m-35.82-56.06c-1.55,0-4.67-1.56-4.67-4.68v-26.47c0-1.55,1.56-4.67,4.67-4.67h67c1.55,0,4.67,1.56,4.67,4.67V1361c0,1.56-1.56,4.68-4.67,4.68Zm-361.27,42c-1.56,0-4.68-1.56-4.68-4.67v-26.48c0-1.55,1.56-4.66,4.68-4.66h57.61c1.56,0,4.67,1.55,4.67,4.66V1403c0,1.55-1.55,4.67-4.67,4.67Zm10.9,115.24,24.91-1.56a3.35,3.35,0,0,1,3.12,3.11l1.55,28a3.35,3.35,0,0,1-3.11,3.12h-26.47a3.37,3.37,0,0,1-3.12-3.12l-1.55-24.91c1.55-3.12,3.11-4.67,4.67-4.67m-7.79-12.46c-1.56,0-4.67-1.56-4.67-4.67l-1.56-28c0-1.56,1.56-4.67,4.67-4.67l28-1.56c1.56,0,4.67,1.56,4.67,4.67l1.56,29.59c0,1.55-1.56,4.67-4.67,4.67Zm-65.4,140.15,1.55-6.23,6.23-6.23c1.56,0,9.34,0,10.9-1.56,1.56,0,7.79-1.55,9.35-3.11s9.34-1.56,14-4.67c4.67-1.56,15.57-3.12,17.13-3.12s3.12,6.23,3.12,6.23,4.67,14,3.11,17.13a31.55,31.55,0,0,1-1.55,7.87c-1.55,0-9.34,4.67-10.9,4.67s-12.46,4.67-14,4.67a190.56,190.56,0,0,0-21.81,4.67c-3.11,1.56-10.9,0-14,0s-4.67-7.79-4.67-7.79v-12.45Zm-54.51-45.16,18.69-1.56,24.92-3.11,23.35-4.67v31.14l-20.24,7.79-21.8,3.11L1409.3,1635l-3.12-26.48Zm-17.13-20.25-1.56-24.91h15.58l20.24-1.56,31.15-7.78,6.23,26.47-20.25,7.78-26.47,1.56Zm-65.4,34.26s57.62-9.34,65.4-12.45,4.67,34.25,4.67,34.25-18.68,9.35-34.26,9.35-35.81,0-35.81-3.12v-28m-81-68.51v-34.26a191.29,191.29,0,0,0,62.29-7.79l3.12,38.93c-23.36,12.46-65.41,3.12-65.41,3.12m-88.76,0v-35.82c23.36,3.11,76.31,0,76.31,0L1233.3,1551c-24.91,9.34-74.74,0-74.74,0M1129,1622.6l62.29-1.56-3.11,31.15-59.18-1.56Zm-3.11-51.39h60.73v29.59h-60.73Zm-42-28,1.56-37.37,59.17,7.78,1.56,37.38Zm-12.46,68.52,7.8,3.18,18.69,1.55h18.68v24.91l-9.34,3.12h-23.36l-14-6.23ZM1055.83,1593l-1.56-34.26c3.12,4.67,57.62,4.67,57.62,4.67v32.71c-20.24,6.22-56.06-3.12-56.06-3.12m-40.49,9.34,23.36,4.68,23.36,1.55-3.11,26.48h-9.35l-20.24-1.56-17.16-6.22Zm-20.24-24.91,3.11-31.15,43.61,6.23-1.56,32.7h-18.69l-26.47-7.78m-32.7-51.39,28,17.13-3.12,29.59-29.58-12.46Zm38.93-38.93-3.12,34.26-38.93-9.34,7.79-35.82ZM998.21,1428v31.14l-32.7,4.67,3.12-43.6Zm14,46.71,1.56-37.37,52.94,6.22v42Zm3.11,15.57,57.62,12.46-3.11,35.82L1012.2,1523Zm151-37.35v38.93l-85.64-6.23,4.67-38.93Zm63.85,38.93h-46.71v-37.37h46.69Zm68.52-38.93v35.82l-52.94,1.55V1456Zm183.75-84.09c0,1.56-1.55,4.67-4.67,4.67h-40.49c-1.55,0-4.67-1.55-4.67-4.67v-17.13c0-1.56,1.56-4.67,4.67-4.67h40.49c1.56,0,4.67,1.55,4.67,4.67Zm15.58,48.27,6.23,34.26c-1.56,9.35-21.81,7.79-21.81,7.79v-32.7Zm-7.79,174.41s9.35-1.55,9.35-3.11l10.9-7.79h6.22l1.56,15.58,1.56,12.45-6.23,4.67s-9.34,4.68-10.9,4.68c-1.56,1.55-10.9,3.11-10.9,3.11l-7.79-1.56-1.56-26.47Zm-4.67-102.77c6.23,0,20.24-12.46,20.24-12.46l1.56,38.93c-4.67,6.23-20.25,9.34-20.25,9.34ZM1470,1551l28-10.9,17.13-7.79,1.55,26.47s-12.45,7.79-14,7.79l-18.69,6.23-14,1.56-3.12-21.81Zm-34.26-113.68,38.93-10.9v37.37l-37.38,7.79Zm-24.92,63.85c28,0,65.4-12.46,65.4-12.46l3.12,32.7c-18.69,10.9-68.52,14-68.52,14Zm-26.47-21.81v-35.82l38.93-7.78v37.37Zm-74.75,3.12,1.56-32.7,56.06-3.12v37.37h-57.62Zm79.42,102.77-6.23,4.68-15.57,1.55h-26.47l-3.12-23.35L1361,1565l24.92-6.23Zm-63.86-37.36-1.55-37.37c9.34,1.56,70.07-12.46,70.07-12.46l1.56,38.93c-23.35,10.9-70.08,10.9-70.08,10.9m200.9-124.6h35.81c1.56,0,4.68,1.56,4.68,4.68l-1.56,28c0,1.55-1.56,4.67-4.67,4.67H1526.1c-1.56,0-4.68-1.56-4.68-4.67l-1.55-28c3.11-1.56,4.67-4.68,6.23-4.68m-28-59.17c-1.56,0-4.67-1.56-4.67-4.68V1333c0-1.57,1.55-4.68,4.67-4.68h57.62c1.55,0,4.67,1.56,4.67,4.68v26.46c0,1.56-1.56,4.68-4.67,4.68Zm-133.93,3.11v-9.34c0-1.56,1.56-4.67,4.68-4.67h40.49c1.55,0,4.67,1.55,4.67,4.67v9.34c0,1.56-1.56,4.68-4.67,4.68h-40.49q-4.68-2.34-4.68-4.68m-15.57-9.34v12.46c0,1.56-1.55,4.67-4.67,4.67h-51.39c-1.55,0-4.67-1.56-4.67-4.67v-12.46c0-1.56,1.56-4.67,4.67-4.67h51.39c3.12,1.55,4.67,3.11,4.67,4.67m-3.11-34.26H1291c-1.56,0-4.68-1.56-4.68-4.67v-12.46c0-1.56,1.56-4.67,4.68-4.67h54.5c1.56,0,4.67,1.56,4.67,4.67V1319c0,3.11-3.11,4.67-4.67,4.67m-137-4.67v-12.46c0-1.56,1.56-4.67,4.67-4.67h54.51c1.55,0,4.67,1.56,4.67,4.67V1319c0,1.55-1.56,4.67-4.67,4.67h-54.51c-1.55,0-4.67-1.56-4.67-4.67m3.12,38.93H1263c1.55,0,4.67,1.55,4.67,4.67V1375c0,1.55-1.56,4.67-4.67,4.67h-51.39c-1.56,0-4.67-1.56-4.67-4.67v-12.46c0-3.12,1.55-4.67,4.67-4.67m56.06,51.39c110.56-4.68,216.45-17.13,216.45-17.13s-56.06,38.93-180.64,43.6-369.06-20.24-323.9-38.93c0,0,177.52,17.13,288.09,12.46m-140.23-93.39v-6.24a7.36,7.36,0,0,1,6.91-7.78,6.46,6.46,0,0,1,.88,0h48.28a7.35,7.35,0,0,1,7.78,6.89,6.61,6.61,0,0,1,0,.89v6.24a7.35,7.35,0,0,1-6.89,7.78,6.61,6.61,0,0,1-.89,0H1135.2a7.37,7.37,0,0,1-7.79-6.9,6.46,6.46,0,0,1,0-.88m46.72,43.59c1.56,0,4.68,1.56,4.68,4.68v17.13c0,1.56-1.56,4.67-4.68,4.67h-62.29c-1.56,0-4.67-1.56-4.67-4.67v-17.13c0-1.56,1.56-4.68,4.67-4.68ZM982.62,1649.11a66.66,66.66,0,0,0-1.55,7.79c0,1.55,0,1.55-1.56,3.11a11.9,11.9,0,0,1-7.79,3.12c-1.55,0-6.23-1.56-6.23-1.56l-15.57-6.23s-6.23-4.67-4.67-12.46a90.41,90.41,0,0,0,1.56-15.57l3.11-3.11,10.9,4.67,9.34,3.11c1.56,0,9.35,3.12,9.35,3.12l3.11,4.67v9.34m-9.34-28-23.36-9.34,4.67-28,54.51,14s1.55,24.92,0,26.48-15.58,0-15.58,0Zm281.86,0-1.56,31.15-49.83-1.56v-28ZM1252,1604l-3.11,1.56-10.9,1.56h-17.13l-20.24-7.79V1574.4l24.91,1.55,28-1.55Zm68.52,14-1.55,34.26-48.28-1.56,1.56-32.7Zm-23.34-15.59-32.7-1.55v-26.47l28-1.56,37.38-6.23,1.55,29.59Zm462.5,21.81v24.91c0,1.56-1.56,4.68-4.67,4.68h-52.94c-1.56,0-4.67-1.56-4.67-4.68V1624.2c0-1.56,1.55-4.68,4.67-4.68H1755q4.67,0,4.67,4.68m-3.11-23.36H1699c-1.55,0-4.67-1.56-4.67-4.67v-18.69c0-1.56,1.56-4.67,4.67-4.67h57.62c1.55,0,4.67,1.56,4.67,4.67v18.69c-1.56,3.11-3.12,4.66-4.67,4.67m71.63,23.36V1646c0,1.55-1.56,4.67-4.67,4.67h-51.39c-1.56,0-4.67-1.56-4.67-4.67v-21.8c0-1.56,1.56-4.68,4.67-4.68h51.39c3.11,1.56,4.66,3.12,4.67,4.68m60.73-3.12c1.56,0,4.68,1.56,4.68,4.67v21.8c0,1.56-1.56,4.67-4.68,4.67h-51.38c-1.56,0-4.68-1.55-4.68-4.67v-21.8c0-1.55,1.56-4.67,4.68-4.67Zm-49.83-21.8c0,1.56-1.55,4.67-4.67,4.67H1770.6c-1.55,0-4.67-1.56-4.67-4.67v-23.37c0-1.55,1.56-4.67,4.67-4.67h63.85c1.56,0,4.67,1.56,4.67,4.67Zm191.54-179.08c1.56,0,4.68,1.56,4.68,4.67v37.37c0,1.56-1.56,4.68-4.68,4.68h-35.82c-1.55,0-4.66-1.56-4.66-4.68v-37.33c0-1.56,1.55-4.67,4.66-4.67Zm-35.82-18.69c0,1.56-1.55,4.67-4.66,4.67h-65.41c-1.56,0-4.67-1.56-4.67-4.67v-17.13c0-1.55,1.56-4.67,4.67-4.67h65.43c1.55,0,4.66,1.56,4.66,4.67Zm34.26-112.12c1.56,0,4.68,1.56,4.68,4.67v21.85c0,1.55-1.56,4.66-4.68,4.66h-570c-1.56,0-4.67-1.55-4.67-4.66V1294.1c0-1.56,1.55-4.67,4.67-4.67Zm-515.44-14-9.34-28-31.15-14-59.17-3.11-285,3.11-34.26,3.11s-18.68,14-17.13,20.25-9.34,24.91-9.34,24.91l-15.57,14-24.92,14s1.56,20.25-3.11,21.8-31.15,7.79-37.38,9.35-256.94,4.67-256.94,4.67l-437.58,15.57s60.73,246,183.75,387.76l53-4.68,28-1.56,37.37-1.55H650.9l102.78,1.55s73.19,1.56,77.86-1.55,10.9-1.56,20.24-4.67,28-4.67,28-4.67l32.7,3.11s26.48,10.9,29.59,6.23,3.12-10.9,10.91-10.9c9.34,0,28,10.9,32.7,12.45s49.83,18.69,137,29.59,140.16,10.9,180.64,9.35,132.37-12.46,155.73-12.46c21.8,0,57.61-3.11,68.52-7.79,9.34-3.11,29.58-10.9,34.25-14,6.23-3.12,9.35-4.68,10.91-7.79s-7.79-7.78-6.23-10.9,6.23-10.9,10.9-14,12.45-10.9,21.8-14c10.9-3.11-3.12,1.56,18.68,1.56,21.81,1.56,35.82,0,46.72,3.11s168.18,1.56,168.18,1.56h62.42c12.46,0,34.26-1.56,42-1.56,6.23,1.56,12.46,1.56,18.69-1.55s146.38-221.13,162-392.43v-26.47Z" transform="translate(0.03 0)"/><path class="cls-1" d="M1428,1174.16a3.35,3.35,0,0,1-3.11,3.11h-35.82a3.34,3.34,0,0,1-3.11-3.11v-14a3.34,3.34,0,0,1,3.11-3.11h35.82a3.34,3.34,0,0,1,3.11,3.11Zm-1.56,38.93a3.34,3.34,0,0,1-3.11,3.11H1387.5a3.35,3.35,0,0,1-3.11-3.11V1196a3.35,3.35,0,0,1,3.11-3.12h35.82a3.35,3.35,0,0,1,3.11,3.12Zm-49.83,1.55a3.35,3.35,0,0,1-3.11,3.12h-38.93a3.37,3.37,0,0,1-3.12-3.12v-17.13a3.35,3.35,0,0,1,3.12-3.11h38.93a3.35,3.35,0,0,1,3.11,3.11Zm-52.94,0a3.37,3.37,0,0,1-3.12,3.12h-38.93a3.35,3.35,0,0,1-3.11-3.12v-14a3.35,3.35,0,0,1,3.11-3.12h38.93a3.37,3.37,0,0,1,3.12,3.12Zm-54.46-34.26a3.35,3.35,0,0,1-3.11,3.12H1230.2a3.35,3.35,0,0,1-3.11-3.12v-14a3.34,3.34,0,0,1,3.11-3.11H1266a3.34,3.34,0,0,1,3.11,3.11Zm0,34.26a3.35,3.35,0,0,1-3.11,3.12H1230.2a3.35,3.35,0,0,1-3.11-3.12v-14a3.35,3.35,0,0,1,3.11-3.12H1266a3.35,3.35,0,0,1,3.11,3.12Zm51.39-48.27v14a3.35,3.35,0,0,1-3.11,3.12h-35.82a3.35,3.35,0,0,1-3.11-3.12v-14a3.34,3.34,0,0,1,3.11-3.11h35.82a3.34,3.34,0,0,1,3.11,3.11m53-1.56v14a3.35,3.35,0,0,1-3.12,3.11h-35.81a3.35,3.35,0,0,1-3.12-3.11v-14a3.35,3.35,0,0,1,3.12-3.11h35.81a3.35,3.35,0,0,1,3.12,3.11m-118.35-26.47c3.11,0,10.9-3.12,17.13-4.67h52.83c1.56,0,43.61,1.56,45.16,1.56h1.56s10.9,1.55,12.46,1.55c3.11,0,6.23,0,9.34-1.55s3.12,0,4.67,1.55,4.68,1.56,7.79,3.12,7.79,0,9.34,0,3.12,0,4.67,1.55,1.56,1.56,1.56,4.68-6.23,1.55-6.23,1.55l-176-1.55c-1.56,4.67,14-6.23,15.57-7.79m216.45,38.93c-6.22-4.67-6.22-4.67-7.78-4.67-1.56,1.56-10.9,1.56-15.57,0s-9.35-9.34-9.35-9.34-4.67-10.91-6.23-14-3.11-14-3.11-14h-9.3c-1.55,0-12.45-6.24-17.12-6.24H1392.2c-3.11,0-7.78-4.66-10.9-6.22s-12.45,0-18.68,0-15.57,0-18.69-1.56-31.14,0-32.7,0-26.47,3.12-28,4.67-21.8,0-21.8,0-24.92,7.79-28,10.9a18.84,18.84,0,0,0-7.78,7.79c-1.56,3.11-7.78,4.67-12.46,10.9-6.22,6.23,0,7.79,0,14s0,3.12-1.55,7.79-6.23,17.13-9.35,24.92-1.55,34.26-1.55,34.26h267.84c9.34,0,23.36-34.26,23.36-34.26,0,3.11-14-20.25-20.25-24.92" transform="translate(0.03 0)"/><path class="cls-1" d="M996.64,1001.3v-4.67L992,993.52a68.39,68.39,0,0,1-1.56-7.79c0-1.56-6.23-7.79-6.23-7.79s-4.67-4.67-6.23-4.67a3,3,0,0,1-3.11-2.89v-.22a2.16,2.16,0,0,1-.07-3l.07-.07c0-3.11-1.56-9.34-1.56-10.9s-3.11-3.11-4.67-6.23-9.35-7.78-10.9-9.34-6.23-1.56-9.35-1.56c-3.11,1.56-3.11,1.56-1.55,3.12,0,1.55,7.78,3.11,9.34,4.67,3.11,4.67,1.56,7.78,1.56,14s-4.67,4.67-4.67,4.67a27.64,27.64,0,0,1-7.79-1.55,8.56,8.56,0,0,0-4.67-7.79V953h0c1.55,0,1.55,0,1.55-1.56a3.35,3.35,0,0,0-3.11-3.12v-14h-1.56l-1.55,14a3.37,3.37,0,0,0-3.12,3.12c0,1.56,1.56,1.56,3.12,1.56v3.11c-1.56,1.56-4.68,3.12-4.68,6.23H925c0-3.11-1.56-4.67-4.68-6.23V953h0c1.56,0,1.56,0,1.56-1.56a3.35,3.35,0,0,0-3.11-3.12v-14H917.2l-1.56,14a3.37,3.37,0,0,0-3.12,3.12c0,1.56,1.56,1.56,3.12,1.56v3.11c-1.56,0-3.12,3.12-4.67,4.67h-1.56c-1.56-1.55-1.56-4.67-4.67-4.67V953h0c1.56,0,3.11,0,3.11-1.56a3.35,3.35,0,0,0-3.11-3.12v-14H903.2l-1.56,14a3.35,3.35,0,0,0-3.11,3.12c0,1.56,1.56,1.56,3.11,1.56v3.11c-1.55,0-3.11,1.56-4.67,3.12-1.55-1.56-1.55-3.12-3.11-3.12V953h0c1.56,0,1.56,0,3.11-1.56a3.35,3.35,0,0,0-3.11-3.12v-14H892.3l-1.56,14a3.35,3.35,0,0,0-3.11,3.12c0,1.56,1.56,1.56,3.11,1.56v3.11a3.35,3.35,0,0,0-3.11,3.12H883c0-3.12-3.12-6.23-4.67-7.79v-3.12h0c1.55,0,3.11,0,3.11-1.55a3.35,3.35,0,0,0-3.11-3.12v-14h-1.56l-1.56,14a3.35,3.35,0,0,0-3.11,3.12,1.52,1.52,0,0,0,1.49,1.55h.06v3.12c-1.55,1.56-4.67,3.11-4.67,6.23h-3.11c0-3.12-3.12-4.67-4.67-6.23v-3.12h0c1.55,0,1.55,0,1.55-1.55a3.35,3.35,0,0,0-3.11-3.12v-14H858l-1.56,14a3.35,3.35,0,0,0-3.11,3.12c0,1.55,1.56,1.55,3.11,1.55v3.12c-1.55,0-3.11,3.11-4.67,4.67H848.7c0-3.11-1.56-6.23-4.67-6.23v-3.11h0c1.55,0,1.55,0,3.11-1.56a3.34,3.34,0,0,0-3.11-3.11v-14h-1.56l-1.56,14a3.34,3.34,0,0,0-3.11,3.11c0,1.56,1.56,1.56,3.11,1.56v3.12c-1.55,1.56-4.67,3.12-4.67,6.23-3.11,0-1.56,0-4.67-3.11-1.56-3.12-1.56-4.68-1.56-7.79s0-7.79,1.56-9.34,3.11-1.56,3.11-3.12c0,0,1.56-1.56-1.55-3.11-3.12,0-9.35,6.23-12.46,10.9s-7.79,10.9-7.79,15.57-7.78,4.67-7.78,4.67c-26.48,14-17.13,40.49-17.13,40.49l1.55,3.11L783.3,1006s0,7.79-1.56,7.79a16.22,16.22,0,0,0,6.23,1.56l-3.12,6.22,54.51,15.58v3.11h37.37v-3.11l116.79-4.68-3.11-6.22,4.67-1.56v-9.34l-4.67-3.12V999.74Z" transform="translate(0.03 0)"/><polygon class="cls-1" points="380 1832.87 415.81 1893.6 376.88 1960.56 446.96 1924.75 509.25 1960.56 474.99 1896.72 513.92 1837.54 445.4 1874.91 380 1832.87"/><polygon class="cls-1" points="1892.08 1821.97 1927.89 1882.7 1888.96 1949.66 1960.59 1913.84 2022.88 1949.66 1988.62 1885.81 2027.55 1826.64 1959.04 1864.01 1892.08 1821.97"/><path class="cls-1" d="M1641.33,2110.05a186.82,186.82,0,0,0-48.27-20.24c-17.13-4.67-34.26-6.23-51.39-7.79s-34.26,0-51.39,3.12l49.83,9.34c17.13,3.12,32.7,6.23,48.28,10.9,4.67,1.56,7.78,1.56,12.46,3.12s7.78,1.55,12.45,3.12l12.46,4.66c3.11,1.56,7.79,3.12,10.9,4.68,15.57,6.22,29.59,15.57,42,26.47-7.79-15.57-21.8-28-37.38-37.38" transform="translate(0.03 0)"/><path class="cls-1" d="M1667.81,2091.37a119.88,119.88,0,0,0-38.94-15.57c-14-3.12-28-6.23-40.48-6.23-14,0-28,0-40.49,1.55l40.49,7.79c14,3.11,26.47,4.67,38.93,9.34,3.11,0,6.23,1.56,9.34,3.12s6.23,1.56,9.34,3.11l9.35,3.12c3.11,1.55,6.23,3.11,9.34,3.11A247.26,247.26,0,0,1,1699,2121c-7.79-12.46-18.69-21.81-31.14-29.59" transform="translate(0.03 0)"/><path class="cls-1" d="M1688.05,2072.68a147.61,147.61,0,0,0-32.7-14,132.51,132.51,0,0,0-35.82-4.68c-12.46,0-23.36,0-35.81,1.56l34.25,6.23c10.9,1.56,21.81,4.67,34.26,7.79,3.12,0,6.23,1.55,7.79,1.55s4.67,1.56,7.79,3.12l7.78,3.11c3.12,1.56,4.67,1.56,7.79,3.12,10.9,4.67,20.24,10.9,29.58,18.68-6.22-12.45-15.56-20.24-24.91-26.47" transform="translate(0.03 0)"/><path class="cls-1" d="M1713,2055.55c-7.79-4.67-17.13-7.78-26.48-10.9s-18.68-3.11-28-4.67c-9.34,0-18.68,0-28,1.56l26.48,4.67a163.41,163.41,0,0,1,26.47,6.23c1.55,0,4.67,1.55,6.23,1.55s4.67,1.56,6.22,1.56l6.24,1.56c1.55,1.56,4.67,1.56,6.22,3.11a92.85,92.85,0,0,1,23.36,14,53.66,53.66,0,0,0-18.68-18.69" transform="translate(0.03 0)"/><path class="cls-1" d="M1733.2,2038.42c-6.23-4.67-14-6.23-21.8-9.34-7.79-1.56-15.57-3.12-23.36-3.12s-15.57,0-23.36,1.56l23.36,4.67c7.79,1.56,15.57,3.12,21.8,4.67,1.56,0,3.12,1.56,4.67,1.56s3.12,1.56,4.67,1.56l4.68,1.56c1.55,0,3.11,1.55,4.67,1.55,6.23,3.12,14,6.23,18.69,12.46-1.56-7.78-7.79-12.46-14-17.13" transform="translate(0.03 0)"/><path class="cls-1" d="M1759.68,2022.85c-6.22-3.11-12.45-6.23-20.24-7.79-6.23-1.55-14-3.11-20.25-3.11s-14,0-20.24,1.56l20.24,3.11c6.23,1.56,12.46,3.12,20.25,4.67,1.55,0,3.12,1.56,4.67,1.56s3.12,1.56,4.67,1.56l4.68,1.55c1.55,0,3.11,1.56,4.66,1.56,6.24,3.11,12.46,6.23,17.13,10.9a73.67,73.67,0,0,0-15.57-15.57" transform="translate(0.03 0)"/><path class="cls-1" d="M738.14,2110.05a186.82,186.82,0,0,1,48.27-20.24c17.13-4.67,34.26-6.23,51.39-7.79s34.26,0,51.39,3.12l-49.83,9.34c-17.13,3.12-32.71,6.23-48.28,10.9-4.67,1.56-7.78,1.56-12.46,3.12s-7.78,1.55-12.45,3.12l-12.46,4.66c-3.12,1.56-7.79,3.12-10.9,4.68-15.57,6.22-29.59,15.57-42,26.47,7.79-15.57,21.8-28,37.38-37.38" transform="translate(0.03 0)"/><path class="cls-1" d="M711.66,2091.37a120.18,120.18,0,0,1,38.93-15.57c14-3.12,26.48-6.23,40.49-6.23s28,0,40.49,1.55l-40.49,7.79c-14,3.11-26.47,4.67-38.93,9.34-3.11,0-6.23,1.56-9.34,3.12s-6.23,1.56-9.35,3.11l-9.34,3.12c-3.11,1.55-6.23,3.11-9.34,3.11A247.26,247.26,0,0,0,680.52,2121c7.78-12.46,18.69-21.81,31.14-29.59" transform="translate(0.03 0)"/><path class="cls-1" d="M693,2072.68a147.61,147.61,0,0,1,32.7-14,132.49,132.49,0,0,1,35.81-4.68c12.46,0,23.36,0,35.82,1.56l-34.26,6.23a269.53,269.53,0,0,0-34.26,7.79c-3.11,0-6.23,1.55-7.78,1.55-3.12,1.56-4.67,1.56-7.79,3.12l-7.79,3.11c-3.11,1.56-4.67,1.56-7.78,3.12-10.9,4.67-20.25,10.9-29.59,18.68,4.67-12.45,14-20.24,24.92-26.47" transform="translate(0.03 0)"/><path class="cls-1" d="M668.06,2055.55c7.79-4.67,17.13-7.78,26.47-10.9s18.69-3.11,28-4.67c9.35,0,18.69,0,28,1.56l-26.47,4.67a162.36,162.36,0,0,0-26.47,6.23c-1.56,0-4.67,1.55-6.23,1.55s-4.67,1.56-6.23,1.56l-6.23,1.56c-1.56,1.56-4.67,1.56-6.23,3.11a93.44,93.44,0,0,0-23.36,14c3.12-7.79,10.9-14,18.69-18.69" transform="translate(0.03 0)"/><path class="cls-1" d="M647.82,2038.42c6.23-4.67,14-6.23,21.8-9.34,7.78-1.56,15.57-3.12,23.36-3.12s15.57,0,23.36,1.56L693,2032.19c-7.79,1.56-15.58,3.12-21.81,4.67-1.55,0-3.11,1.56-4.67,1.56s-3.11,1.56-4.67,1.56l-4.67,1.56-4.67,1.55c-6.23,3.12-14,6.23-18.69,12.46,0-7.78,6.23-12.46,14-17.13" transform="translate(0.03 0)"/><path class="cls-1" d="M621.34,2022.85c6.23-3.11,12.46-6.23,20.25-7.79,6.23-1.55,14-3.11,20.24-3.11s14,0,20.25,1.56l-20.25,3.11c-6.23,1.56-14,3.12-20.24,4.67-1.56,0-3.12,1.56-4.67,1.56s-3.12,1.56-4.68,1.56l-4.67,1.55c-1.56,0-3.11,1.56-4.67,1.56-6.23,3.11-12.46,6.23-17.13,10.9,3.12-6.23,9.34-10.9,15.57-15.57" transform="translate(0.03 0)"/><path class="cls-1" d="M521.68,1734.76s-3.11,26.47,10.9,26.47c12.46,0,146.38-7.78,155.72-3.11,9.35,6.23,29.59,7.79,28,12.46s-95,14-127.7,9.34-26.47,6.23-17.13,12.46c7.79,6.23,20.24,23.36,20.24,23.36s0,4.67-7.78,7.78-7.79,14,3.11,21.8,32.7,20.25,32.7,20.25l15.58,9.34h28s20.24,9.34,4.67,9.34-14,0-10.9,6.23,15.57,23.36,15.57,23.36l79.42,62.29-155.72-99.66-74.75-70.08-48.2-54.48-6.21-17.15Z" transform="translate(0.03 0)"/><path class="cls-1" d="M839.36,1730.09l101.22,116.82a1.52,1.52,0,0,0,1.55-1.49v-.07l-77.86-121.44Z" transform="translate(0.03 0)"/><path class="cls-1" d="M593.31,1820.41l10.9,6.23,224.24,7.78s51.39,4.67,53,4.67,26.47,4.68,26.47,4.68l10.91,4.67-4.68,6.23H893.91l-40.49-3.12-62.29-3.11-113.68-7.79s-48.27-1.56-54.5,0c-4.67,1.56-14,1.56-17.13-3.11a61.48,61.48,0,0,1-6.23-7.79l-10.9-7.79Z" transform="translate(0.03 0)"/><path class="cls-1" d="M811.33,1887.37s49.83-15.57,56-15.57c4.68,0,10.91,0,15.58,3.11s14-1.55,4.67,3.12c-7.79,3.11-15.57,9.34-15.57,9.34s-4.68,3.11,1.55,3.11h10.9s6.23,1.56,0,6.23-3.11,9.35-14,10.9-17.13,1.56-26.47,0a141.46,141.46,0,0,1-18.69-4.67s-7.79-6.23-9.34-6.23-9.35-6.23-9.35-6.23Z" transform="translate(0.03 0)"/><path class="cls-1" d="M998.2,1790.82s49.84,32.7,84.09,34.26,34.26,4.67,32.71,6.23-7.79,9.34-14,10.9-46.72,9.34-59.17,0-32.7-18.69-34.26-23.36-9.35-14-9.35-15.57-9.34-12.46,0-12.46" transform="translate(0.03 0)"/><path class="cls-1" d="M893.86,1948.1s18.68-6.23,21.8-6.23c3.12-1.56,14-1.56,15.57-1.56,3.12,0,20.25-1.55,21.81-1.55s15.57,0,17.13,1.55,10.9,4.68,15.57,4.68,14,1.55,17.13,1.55,21.8,4.67,24.91,4.67,21.8,1.56,24.92,3.12c3.11,0,14,1.56,15.57,3.12l6.23,6.23-9.34,4.67s-17.13,1.55-20.25,0-23.36-6.23-29.59-6.23-32.7-4.67-35.81-4.67c-1.56,0-12.46-4.67-17.13-3.12s-24.92,0-26.47,0c-1.56,1.56-12.46,0-15.58,1.56s-6.23,1.56-10.9,3.11c-4.67,0-9.34,3.12-14,1.56s-10.91-1.56-7.79-4.67a55,55,0,0,1,6.23-7.79" transform="translate(0.03 0)"/><path class="cls-1" d="M912.54,1968.35c1.56,0,7.79-1.56,10.91-1.56,1.56,0,18.68,0,20.24,1.56s10.9-1.56,10.9,1.55c1.56,1.56,6.23,9.35,7.79,9.35s4.67,1.55,3.11,3.11c0,1.56-3.11,4.67-4.67,4.67h-9.34c-1.56,0-9.35-3.11-9.35-3.11-1.55,0-14,1.56-14,1.56s-9.34-1.56-10.9-1.56-10.9-1.56-10.9-1.56-1.56-4.67,1.55-6.23a22,22,0,0,1,4.67-7.78" transform="translate(0.03 0)"/><path class="cls-1" d="M912.54,2002.61l12.47-1.56,9.34,3.11,4.67,1.56s-1.56,6.23-4.67,6.23c-3.12,1.56-15.57,4.67-20.25,4.67-6.23,0-14-3.11-14-3.11l3.11-4.68Z" transform="translate(0.03 0)"/><path class="cls-1" d="M1261.37,1937.2H1333c6.23,0,20.24,1.56,23.36,1.56s12.46,1.55,12.46,3.11-1.56,3.12-3.12,4.67c-3.11,1.56-43.6,10.91-54.5,9.35-10.9,0-37.37-1.56-45.16-1.56s-38.93,3.12-48.27,1.56-34.26-3.11-40.49-3.11-15.58,1.55-17.13,0-6.23-3.12-6.23-4.68,3.11-6.23,4.67-6.23,9.34-1.56,14-1.56h48.28c6.23,0,12.45,1.56,20.24-1.55,7.79-1.56,20.25-1.56,20.25-1.56" transform="translate(0.03 0)"/><path class="cls-1" d="M1213.09,1963.68c6.23,1.55,12.46,3.11,15.57,3.11,4.67,0,14,3.11,14,3.11s4.67,4.67,1.56,6.23-10.91,1.56-14,3.12-18.68,0-20.24,0-20.24,1.55-21.8,0-17.13-4.68-20.25-4.68c-1.56,0-10.9-1.55-9.34-3.11s0,0,6.23-1.56,12.46-4.67,17.13-3.11c4.67,0,24.92-4.67,31.14-3.11" transform="translate(0.03 0)"/><path class="cls-1" d="M1906.06,1695.83l-26.47,28s-21.8-1.56-32.7,0-29.59,0-37.37,0-14,1.56-18.69,0c-4.67,0-14-1.56-20.25,0-4.67,1.56-15.57,7.79-15.57,7.79s-6.23,3.11,4.67,4.67,17.13-1.56,26.48,0c7.78,1.56,20.24,0,26.47,0,6.23,1.56,18.69,3.11,23.36,4.67s18.69,3.11,24.91,3.11h9.35l-68.52,87.21s-14,7.78-38.93,0-48.28-12.46-60.73-14-29.59-3.11-34.26-3.11c-6.23,0-17.13,1.56-20.25,6.23-4.67,4.67-24.91,6.23-28,6.23s-14-7.79-34.26-6.23-46.71,3.11-60.73,4.67-37.37,7.79-40.49,9.34c-1.56,1.56-9.34,3.12-6.23,7.79,1.56,3.11-7.78,4.67,6.23,6.23,14,3.11,56.06,6.23,81,0s29.59-7.79,37.37-7.79h42c7.78,0,23.36,6.23,24.91,7.79s17.13,3.11,1.56,10.9c-14,7.78-24.91,18.69-35.82,17.13s-46.71,0-68.51,0h-63.85c-14,0-52.94,1.56-60.73,3.11s-28,1.56-37.38,3.12-38.93,4.67-40.49,6.23c-1.55,3.11-15.57,3.11-14,9.34,3.11,6.23,0,9.34,14,10.9,12.46,1.56,31.15,6.23,38.94,3.12s31.14-4.68,42-4.68,48.28-6.23,59.18-3.11,74.74-3.12,95,4.67,42,9.35,52.94,14c10.9,3.11,17.13-4.67,23.36-7.79s29.59-17.13,31.15-12.46-6.23,21.8-6.23,21.8l-21.8,20.25-17.13,21.8,118.35-67,102.78-107.45,81-104.34-12.48-6.16Z" transform="translate(0.03 0)"/><path class="cls-1" d="M1197.52,1991.7s20.25,3.12,21.8,3.12,15.58,1.56,20.25,1.56h15.57c3.11,0,7.79,0,4.67,1.56-1.56,1.55-6.23,6.22-9.34,7.78-3.12,0-9.35,1.56-18.69,1.56h-24.91c-7.79,0-10.91-1.56-17.13-1.56s-23.37-1.56-24.92-1.56-6.23,0-4.67-1.55c3.11-3.12,7.78-4.67,12.45-4.67h10.91c7.78-3.12,14-6.24,14-6.24" transform="translate(0.03 0)"/><path class="cls-1" d="M1867.13,1762.79s-77.86,10.9-101.22,12.46-29.59,0-51.39,0-35.81-1.56-48.27,0-20.25,3.11-9.34,6.23,20.24-3.12,26.47,0,76.3,0,88.76,0,14-6.23,32.7-3.12c17.13,1.56,32.71,3.12,37.38,4.67,3.11,0,20.24,1.56,26.47,0,3.11-3.11-1.56-20.24-1.56-20.24" transform="translate(0.03 0)"/><path class="cls-1" d="M1622.65,1697.39s-6.23,9.34-7.79,9.34-4.67,7.79-7.79,12.46-4.67,6.23-3.11,7.78c1.56,3.12-1.56,6.23,4.67,6.23,4.67,0,7.79,0,10.9-3.11s7.79-6.23,9.34-7.79,1.56-3.11,7.79-7.78,14-9.35,14-9.35-4.68-1.55,1.55-4.67a91.86,91.86,0,0,1,10.9-4.67h-40.48Z" transform="translate(0.03 0)"/><path class="cls-1" d="M942.13,1728.53s48.28,32.7,90.32,38.93,144.83,23.36,160.4,23.36,123-3.11,162-4.67c38.93-3.12,88.77-4.67,138.6-14s49.83-10.9,60.73-12.45c12.46-1.56,18.69-6.23,23.36-6.23s15.57,0,15.57,1.56a14.65,14.65,0,0,1-4.67,10.9c-4.67,4.67-37.38,17.13-48.28,18.68-12.45,1.56-95,28-172.85,31.15s-169.74,10.9-239.82,3.11S982.62,1784.61,970.17,1769s-37.38-34.26-37.38-34.26l4.67-6.23Z" transform="translate(0.03 0)"/><path class="cls-1" d="M1225.55,2054h-28c-3.11,0-54.5,0-157.28,21.81,32.7,6.22,67,9.34,101.22,12.45q28-2.33,42-4.67h0c15.57-1.56,35.81-1.56,57.61,0h12.46c6.23,0,12.46,1.56,20.25,1.56,34.25-3.12,67-7.79,99.66-14-96.55-18.68-144.83-17.13-147.94-17.13m920.33,412.67a3.37,3.37,0,0,1-3.12,3.12c-38.93,10.9-185.31,40.49-439.14-63.85a2269.08,2269.08,0,0,0-227.36-79.42c-18.68-4.67-37.37-9.34-54.5-14-95-21.8-155.72-26.48-182.19-28h0c-21.8-1.56-43.61,0-57.62,0h0c-28,0-93.44,4.66-193.1,29.58-17.13,4.68-35.81,9.35-54.5,14-62.29,17.13-133.93,42-216.46,76.3-253.83,104.34-400.21,74.75-439.14,63.85a3.35,3.35,0,0,1-3.11-3.12V2276.68c0-1.56,0-1.56,1.55-3.11l1.56-1.56h0c54.5,6.23,191.54,10.9,375.3-46.72,10.9-3.12,21.8-7.78,34.25-10.9,10.91-3.11,21.81-7.79,32.71-12.46,141.7-54.5,250.71-84.09,327-99.66,37.37-7.79,67-12.46,90.31-15.57q28-2.34,42-4.68h0c15.57-1.55,35.82-1.55,57.62,0h12.46c6.23,0,12.46,1.56,20.24,1.56,21.8,3.12,51.39,6.23,88.76,14,77.86,15.57,190,45.16,337.93,102.77,6.22,3.12,12.45,4.67,18.68,7.79,10.9,4.67,21.8,7.79,32.7,10.9,191.54,63.85,334.81,57.62,390.87,51.39h0c1.56,0,1.56,0,1.56,1.56a5.44,5.44,0,0,1,1.55,3.11v191.54Zm18.69-213.34a28.78,28.78,0,0,0-24.92-7.79c-51.39,4.67-179.08,10.91-351.94-42-10.9-3.12-21.8-6.23-32.7-10.9-14-4.67-29.59-10.9-45.16-15.57-113.68-43.61-207.11-71.64-278.75-88.77-20.24-4.67-40.48-9.34-57.61-14-96.55-20.25-143.27-20.25-147.94-20.25h-28c-3.11,0-54.5,0-157.28,21.8-17.13,4.68-37.37,7.79-59.17,14A2568.58,2568.58,0,0,0,713.2,2177c-20.24,7.78-40.49,14-59.17,20.24-10.91,3.11-23.36,7.78-34.27,10.9-165.06,48.28-286.53,42-336.36,37.37a28.76,28.76,0,0,0-24.91,7.79c-6.23,6.23-10.9,15.57-10.9,24.92v188.42c0,14,9.34,28,23.35,31.14,17.13,4.68,54.51,14,110.57,14,77.86,0,194.65-15.57,347.26-77.86,109-45.16,199.33-71.63,271-90.32,28-6.23,51.39-10.9,73.19-15.57,79.42-14,121.47-12.46,123-12.46h31.15s38.93-1.56,113.68,10.9a569.43,569.43,0,0,1,73.19,15.57c73.18,17.13,166.62,45.16,280.3,91.88,152.61,62.29,269.4,77.86,347.26,77.86,56.06,0,93.44-7.79,110.57-14,14-4.68,23.36-17.13,23.36-31.15v-190c0-9.34-4.68-17.13-10.9-23.36m-939-199.33h-28c-3.11,0-54.5,0-157.28,21.81,32.7,6.22,67,9.34,101.22,12.45q28-2.32,42-4.67h0c15.57-1.56,35.81-1.56,57.61,0h12.46c6.23,0,12.46,1.56,20.25,1.56,34.25-3.12,67-7.79,99.66-14-96.55-18.68-144.83-17.13-147.94-17.13m0,0h-28c-3.11,0-54.5,0-157.28,21.81,32.7,6.22,67,9.34,101.22,12.45q28-2.32,42-4.67h0c15.57-1.56,35.81-1.56,57.61,0h12.46c6.23,0,12.46,1.56,20.25,1.56,34.25-3.12,67-7.79,99.66-14-96.55-18.68-144.83-17.13-147.94-17.13" transform="translate(0.03 0)"/><path class="cls-1" d="M2180.14,2401.26,2175.47,2272c0-3.12-1.56-7.79-4.68-9.35l-14-14a14.12,14.12,0,0,0-10.9-4.67h-4.69c-53-15.57-105.89-43.61-116.8-51.39-4.67-3.12-1.56-4.67,4.67-7.79,79.43,4.67,230.48,4.67,333.25-60.73-18.68,38.93-46.72,91.88-84.09,129.25a15.06,15.06,0,0,0-.51,21.29c.17.18.34.34.51.51l98.11,90.32c-37.37,14-116.79,38.93-196.21,35.82m232-40.49-104.33-96.55c65.41-71.63,101.22-176,102.78-180.64,1.55-6.23,0-14-6.23-17.13s-14-3.11-18.69,1.56c-118.35,123-401.77,84.09-404.88,84.09-6.23-1.56-10.9,1.56-14,6.23a14.12,14.12,0,0,0,0,15.57c12.45,23.36,0,62.29-6.23,76.3-1.56,4.67-1.56,9.35,1.55,14s6.23,6.23,12.46,7.79l90.32,6.23h1.56l76.3-3.12,4.68,4.67,4.67,137a14,14,0,0,0,14,14c10.9,1.56,20.25,1.56,31.15,1.56,107.45,0,208.67-43.6,213.34-45.16a11.71,11.71,0,0,0,7.79-10.9c0-7.78-1.56-12.46-6.24-15.57" transform="translate(0.03 0)"/><path class="cls-1" d="M42.05,2363.91l98.15-90.34a15.07,15.07,0,0,0,.5-21.31c-.16-.17-.33-.34-.5-.5-37.38-37.37-67-90.31-84.09-129.25,102.77,63.85,253.82,65.41,333.25,60.73,4.67,1.56,7.78,4.68,3.11,7.79-10.9,7.79-63.85,35.82-116.79,51.39L271,2244c-7.78,3.11-12.45,4.67-15.57,7.78l-9.34,7.79q-4.68,4.66-4.67,9.34l-4.68,129.25c-77.86,3.12-157.27-21.8-194.65-34.26M0,2371.67c1.56,4.67,4.68,9.34,9.35,10.9s104.33,45.16,213.34,45.16c10.9,0,20.24,0,31.14-1.56,7.79,0,12.46-6.22,14-14l4.67-137,4.67-4.67,76.31,3.12h1.55l90.32-6.23a11.72,11.72,0,0,0,10.91-7.79c3.11-4.67,3.11-9.35,1.55-14-6.23-14-18.68-52.94-6.23-76.3a14.12,14.12,0,0,0,0-15.57c-3.11-4.67-9.34-7.79-14-6.23-3.12,0-286.53,38.93-404.88-84.09a16.58,16.58,0,0,0-18.69-3.12c-6.23,3.12-7.79,10.9-6.23,17.13C9.38,2082.1,45.19,2188,110.6,2258.06L6.2,2354.54c-4.67,6.23-6.23,10.9-6.23,17.13" transform="translate(0.03 0)"/><path class="cls-1" d="M367.51,2402.81l-1.56,1.56-3.11,1.56,1.56-1.56c6.23-4.67,9.34-10.9,7.79-20.24,0-9.35-4.68-15.57-10.9-20.25-4.68-3.11-10.91-4.67-17.13-4.67h0c1.55,0,1.55-1.55,3.11-1.55,3.11-3.12,7.78-3.12,12.46-3.12h1.56c4.66,0,9.34,1.56,14,3.12,4.67,3.11,7.79,6.22,7.79,9.34,1.55,4.67,3.11,7.79,3.11,10.9v7.79c0,3.11-1.56,6.22-6.23,10.9-3.11,3.11-6.23,6.23-9.34,7.78ZM348.83,2395s-1.56,1.56-6.23,1.56c-1.56,0-3.12,0-4.67-4.68,0-1.55-1.56-3.11-1.56-4.67v-1.55c0-1.56,0-3.12-1.56-4.68v-3.1l1.56-1.56c1.56-1.56,3.11-1.56,4.67-3.11h0c3.12,0,4.67,1.55,6.23,1.55,1.56,3.12,3.11,6.23,3.11,9.35,0,6.23-1.55,9.34-1.55,10.9m26.47,23.36a57.48,57.48,0,0,0,17.13-7.79c9.34-7.79,14-17.13,14-31.14,0-12.46-4.67-23.36-14-31.15-7.79-6.23-18.69-10.9-32.7-10.9H358.2c-15.57,0-26.47,4.67-32.7,15.57-6.23,7.79-9.35,18.69-7.79,28a39,39,0,0,0,6.23,20.25c3.11,4.67,6.23,7.78,10.9,9.34a12.22,12.22,0,0,0-6.23,6.23L325.5,2423v15.57l151.05-4.67v-18.69l-104.35,3.14h3.11" transform="translate(0.03 0)"/><path class="cls-1" d="M607.33,2365.44c-1.56,6.23-3.12,9.34-4.67,10.9-3.12,3.12-4.67,3.12-4.67,3.12h0l-1.56,1.55-4.68,1.56a58.27,58.27,0,0,0,1.56-15.57c0-4.67-1.56-10.9-3.11-15.57-3.12-9.35-6.23-15.58-12.46-21.8-4.67-4.68-7.79-7.79-12.46-9.35,1.56,0,4.67-1.55,6.23-1.55,4.67,0,10.9,1.55,17.13,4.67,9.35,4.67,14,12.45,17.13,23.36,1.56,3.11,1.56,6.22,1.56,9.34v9.34M570,2381c-3.11,7.79-6.23,9.35-7.78,9.35H557.5a8.56,8.56,0,0,1-7.79-4.67c-4.67-4.68-7.79-12.46-10.9-20.25-1.56-6.23-1.56-14-1.56-21.8,0-6.23,3.12-10.9,6.23-12.46,4.67,0,7.79,3.12,12.46,6.23a42.53,42.53,0,0,1,10.9,20.25c4.67,10.9,4.67,17.12,3.11,23.35m-48.27-45.16v1.56a16.9,16.9,0,0,0-1.56,7.79v12.46c0,1.55,1.56,4.67,1.56,6.22a5.38,5.38,0,0,1-3.11-1.55H507.66c-3.11,0-6.22,0-9.34,1.55-3.11,0-4.67,1.56-7.78,3.12v-1.56c0-3.11,1.55-6.23,1.55-7.78,0-3.12,1.56-4.68,1.56-6.23a16,16,0,0,1,7.79-9.35c3.11-3.11,7.78-4.67,15.57-7.78h6.19c0-1.56,0,0-1.56,1.55m-7.79,65.41c-1.55,1.55-3.11,3.11-4.67,3.11h-1.56c-1.55,0-3.11,0-4.67-3.11l-4.67-4.67-1.56-1.56-1.52-3.12a11.77,11.77,0,0,1,1.55-6.22c1.56-1.56,1.56-3.12,3.12-4.68h4.67c1.56,0,3.11,0,3.11,1.56l1.56,1.56,1.56,1.56,1.56,1.55,1.55,1.56h0l1.56,4.67h0V2395c-1.56,1.56,0,4.67-1.56,6.23m88.77-93.44a49.9,49.9,0,0,0-21.81-4.67c-7.78,0-15.57,1.56-23.35,3.12a74.33,74.33,0,0,0-10.9,4.67l-4.68,1.56-1.55,1.55h-10.9c-3.12,0-9.35,1.56-15.58,3.12a75.91,75.91,0,0,0-10.9,4.67,88.92,88.92,0,0,0-10.9,6.23c-6.23,4.67-10.9,9.34-14,15.57-6.23,12.46-6.23,28-1.56,45.16,3.11,12.46,7.79,20.24,15.57,26.47a22.27,22.27,0,0,0,15.57,6.23c1.56,0,4.68,0,6.23-1.55q14-4.68,18.69-14c1.56-3.12,1.56-6.23,3.11-9.34l1.56,1.55c6.23,6.23,10.9,9.35,17.13,9.35h4.67c3.12,0,6.23,0,9.35-1.56,10.9-3.12,18.68-9.34,23.35-20.24l7.79,14,4.67-4.67,7.79-3.12c6.23-3.11,10.9-7.78,14-15.57a43,43,0,0,0,4.68-20.24c0-6.23,0-10.9-1.56-15.57-6.23-15.58-14-26.48-26.47-32.71" transform="translate(0.03 0)"/><polygon class="cls-1" points="809.79 2223.73 836.27 2301.6 792.67 2315.61 766.19 2236.19 744.39 2243.98 777.09 2337.41 861.18 2309.38 830.04 2215.95 809.79 2223.73"/><path class="cls-1" d="M763.05,2215.91h0c1.56,3.11,4.67,4.67,10.9,6.22h10.9l1.56-1.55q7-4.66,9.34-9.34a17.17,17.17,0,0,0,0-12.46l-1.55-3.12h0c-3.12-3.11-6.23-6.23-9.35-6.23-1.55,0-3.11-1.55-6.23-1.55-1.55,0-4.67,0-6.23,1.55h0l-3.11,1.56-4.67,3.11h0c-4.67,4.68-4.67,9.35-3.12,17.14Z" transform="translate(0.03 0)"/><path class="cls-1" d="M929.68,2264.22c-1.56,1.56-3.12,3.12-4.67,3.12h-3.12c-1.56,0-3.11,0-4.67-1.56-3.12-3.12-4.68-4.67-6.23-7.79v-7.79c1.55-3.11,1.55-4.67,3.11-6.22h4.68c1.55,0,3.11,0,3.11,1.55l3.12,3.12v3.12h0v3.14h0l1.55,3.11c4.67,1.56,4.67,4.67,3.12,6.23M892.3,2189.5q0-4.66,4.67-4.67h3.12c1.55,0,1.55,0,3.11,1.56,3.12,1.56,4.67,4.67,6.23,9.34v7.79c0,1.55-1.56,3.12-4.67,4.67h-3.12c-1.55,0-3.11,0-3.11-1.55l-4.67-4.68-1.56-1.56h0v-10.9M935.91,2230c-4.68-1.55-7.79-3.11-12.46-3.11a30.39,30.39,0,0,0-10.91,1.56c-7.78,3.11-14,7.78-15.57,15.57-1.55,6.22-3.11,12.46,0,18.68,1.56,4.68,3.12,9.35,6.23,12.46a11.81,11.81,0,0,1-6.23-1.55c-4.67-1.56-9.34-4.68-15.57-9.35-4.67-4.67-9.34-14-12.46-23.36a86.49,86.49,0,0,1-4.67-26.47c0-7.79,1.56-14,6.23-18.69a1.53,1.53,0,0,1,1.5-1.56h.06a28.55,28.55,0,0,0,3.11,14c3.12,7.79,6.23,12.46,14,15.57,3.11,1.56,7.78,1.56,10.9,1.56s6.23,0,9.34-1.56a42.47,42.47,0,0,0,18.69-14c3.11-4.68,6.23-12.46,1.56-23.36-3.12-7.79-7.79-14-15.58-17.13a29.21,29.21,0,0,0-12.46-3.12c-4.67,0-10.9,1.56-15.57,3.12-17.13,6.23-29.59,15.57-35.81,31.14-6.23,14-6.23,31.15,0,48.28,4.67,15.57,12.45,24.91,21.8,32.7,9.34,6.23,20.24,10.9,29.58,10.9h6.23a56,56,0,0,0,17.14-3.12,58.54,58.54,0,0,0,23.35-14c4.68-4.67,9.35-14,4.68-26.47-4.68-9.35-9.35-15.58-17.13-18.69" transform="translate(0.03 0)"/><polygon class="cls-1" points="1009.12 2161.45 1030.92 2240.86 987.32 2253.32 963.96 2172.34 943.72 2178.58 968.63 2273.57 1055.84 2250.21 1030.92 2156.77 1009.12 2161.45"/><path class="cls-1" d="M1169.49,2197.26l-3.12,1.56h-3.11a1.53,1.53,0,0,0,1.56-1.5v-.06a22.17,22.17,0,0,0,9.34-18.69c0-9.34-3.11-15.57-9.34-20.24-4.67-3.12-12.46-6.23-18.69-6.23h0c1.56,0,1.56-1.56,3.12-1.56a29.15,29.15,0,0,1,12.45-3.11c6.23,0,12.46,1.55,15.58,4.67s6.23,6.23,7.78,9.35a30.28,30.28,0,0,1,1.56,10.89v7.79a32.61,32.61,0,0,1-6.23,9.34c-3.11,3.12-6.23,6.23-9.34,7.79Zm-18.69-7.79a16.22,16.22,0,0,1-6.23,1.56c-1.55,0-3.11,0-4.67-4.67-1.56-1.56-1.56-4.67-1.56-6.23v-4.67l1.56-1.56v-1.56c1.56-1.55,3.12-1.55,4.67-1.55h0c4.68,0,6.23,1.55,6.23,3.11a16.9,16.9,0,0,1,1.56,7.79c0,3.11,0,6.23-1.56,7.78m26.48,23.36c7.78-1.55,12.46-4.67,17.13-7.79,9.34-7.78,14-17.12,15.57-29.58,0-14-3.11-24.92-12.46-32.7-7.78-7.79-18.68-12.46-34.26-12.46h-1.56c-14,0-24.91,4.67-31.14,14s-9.35,18.69-9.35,28c0,7.79,1.56,15.58,4.68,20.25s6.23,7.78,10.9,9.34a12.14,12.14,0,0,0-6.23,6.23l-3.12,6.23v15.57l152.62,1.56v-18.69l-105.9-1.55c1.56,3.11,3.12,3.11,3.12,1.55" transform="translate(0.03 0)"/><path class="cls-1" d="M1409.31,2159.91c-1.56-1.56-3.12-1.56-6.23-1.56l-12.46-3.12-14,81-32.7-6.23,12.46-81-21.8-4.67-10.9,65.41a14.15,14.15,0,0,1-4.67,10.9c-1.56,1.55-1.56,1.55-4.68,1.55h-3.13c-1.56,0-3.12-1.55-4.67-3.11-1.56-3.11-1.56-4.67-1.56-9.34l12.46-68.52h-10.9l-7.79-1.56-12.46,65.4c-3.11,14-1.55,23.37,3.12,28,3.11,3.12,4.67,4.68,7.78,6.23l3.12,1.56h15.57v1.56l76.33,12.5,17.14-93.43Z" transform="translate(0.03 0)"/><polygon class="cls-1" points="1404.66 2257.99 1420.23 2264.22 1442.03 2183.25 1460.72 2187.92 1438.92 2268.89 1460.72 2273.57 1480.96 2192.59 1499.65 2197.26 1501.21 2181.69 1429.57 2163 1404.66 2257.99"/><path class="cls-1" d="M1460.69,2163h0l3.12,1.56h0a24.11,24.11,0,0,0,12.45-3.11c4.68-3.12,6.23-6.24,7.79-10.91l1.56-3.11h0c0-4.67-3.12-9.35-6.23-12.46s-6.23-4.67-9.34-4.67h-10.9c-3.12,0-9.35,3.11-12.46,12.46l-1.56,4.67h0a16.86,16.86,0,0,0,4.67,10.9c6.23,1.56,7.79,3.12,10.9,4.67" transform="translate(0.03 0)"/><path class="cls-1" d="M1558.8,2248.65c-3.11,10.9-7.79,18.69-12.46,21.8-6.23,4.67-9.34,6.23-10.9,7.79h-1.55a34.11,34.11,0,0,0,7.78-12.46c3.12-7.79,3.12-15.58-1.56-21.8-3.11-6.23-10.9-12.46-21.8-15.57-3.11,0-4.67-1.56-6.23-1.56h-4.67l1.56-3.12,4.67-4.67a33.76,33.76,0,0,1,12.46-7.78c3.11-1.56,4.67-1.56,7.79-1.56s4.67,0,7.78,1.56c9.34,3.11,14,6.23,17.13,12.45,3.11,7.79,3.11,15.57,0,24.92m-40.49,12.46c-1.56,3.11-3.11,6.23-4.67,7.78a5.74,5.74,0,0,1-4.67,1.56h-1.56a12.22,12.22,0,0,1-6.23-6.23c-1.55-3.11-1.55-6.23,0-10.9h0v-1.56c0-1.56,1.56-4.67,4.67-4.67,1.56-1.56,3.12-1.56,4.68-1.56h3.11a21.76,21.76,0,0,1,6.23,4.67,41.08,41.08,0,0,1-1.56,10.91m76.31,34.26-31.15-9.35c1.56-1.55,4.67-3.11,6.23-4.67,4.67-4.67,9.34-12.46,12.46-23.36,4.67-14,4.67-26.47,0-35.82a36.82,36.82,0,0,0-14-18.68c-4.67-3.12-10.9-4.67-20.24-7.79-4.67-1.56-10.9-3.11-15.57-3.11-6.23,0-10.91,1.55-15.58,3.11-9.34,4.67-15.57,9.34-20.24,17.13-3.11,4.68-4.67,6.23-6.23,9.34s-3.12,6.24-3.12,9.35l-1.55,9.34-1.56,6.23v15.57c0,1.56,0,3.12,1.56,3.12v1.56c0,1.55,1.55,3.11,1.55,4.67,3.12,6.23,7.79,10.9,17.14,14,3.11,1.56,6.23,1.56,10.9,1.56s7.78-1.56,10.9-3.11l-3.12,6.23,67,20.24-10.9,35.81,21.81,4.68,40.48-127.7-20.24-7.78Z" transform="translate(0.03 0)"/><path class="cls-1" d="M1789.27,2329.63c3.12,3.11,3.12,7.78,0,15.57-1.56,7.78-6.23,12.45-14,17.13-4.67,3.11-9.34,3.11-14,3.11-3.12,0-6.23,0-9.34-1.56l-10.91-3.11a29.36,29.36,0,0,0,12.47-3.12c6.22-4.67,10.9-10.9,12.45-17.12l6.23-20.25h1.56c9.34,3.12,12.46,4.67,15.57,9.35m-49.83,12.45c-1.56,0-3.12,1.56-4.67,1.56h-4.68c-6.22-1.56-9.34-4.67-10.9-9.34a21.66,21.66,0,0,1,0-14c1.56-6.23,4.68-9.34,7.79-10.9,1.56,0,3.11-1.56,4.67-1.56s4.67,0,6.23,1.56l17.13,4.67-6.23,20.25c-4.67,4.67-6.22,7.78-9.34,7.78m10.9-63.84,10.9,3.11-6.23,18.69-10.9-3.12Zm59.18,18.68,4.67-17.13-73.2-23.35-10.9,35.81h-6.22c-3.12,0-7.79,1.56-12.46,6.23-4.67,3.11-9.34,9.34-12.46,18.69s-1.55,17.13,3.12,24.91c3.11,3.12,4.67,7.79,9.34,9.35h-4.67c-3.12,0-7.79,1.55-10.9,3.11-6.23,3.12-9.35,6.23-10.91,9.34l-1.55,4.68h0c-1.56,3.11,0,6.22,0,7.78v1.55l1.55,1.56c1.56,1.55,1.56,3.11,4.68,3.11l3.11,1.56h3.12a11.72,11.72,0,0,0,6.23-1.56c3.11-1.56,6.22-3.11,7.78-6.23h0l1.56-7.78h0l3.11-1.56a11.72,11.72,0,0,1,6.23,1.56l1.56,1.56h1.56l1.55,1.55h7.75l10.9,3.12,9.35,1.55,4.67,1.56h20.24l7.79-1.56c6.23-1.55,10.9-4.67,15.57-7.78l3.11-1.56,1.56-3.12,3.12-4.67v-1.55c1.55-1.56,1.55-1.56,1.55-3.12v-3.11l1.56-4.67c1.56-1.56,1.56-4.68,1.56-6.23v-7.79c0-4.67,0-9.34-1.56-12.46h0q-7-9.35-14-14h-1.56a1.53,1.53,0,0,1-1.56-1.5v-.06h-3.11l-7.79-3.11-3.11-1.56,6.23-18.69Z" transform="translate(0.03 0)"/><path class="cls-1" d="M1963.68,2363.91c-1.56-4.67-6.23-9.34-10.9-14a72.67,72.67,0,0,0-15.57-7.79h-3.12l-4.67-1.55h-1.56l3.12-14,17.13,6.23,3.11-17.13L1878,2296.91l-23.35,95,18.68,4.68,20.25-79.42,17.13,4.67-20.25,79.42,21.8,4.67,10.9-45.16,1.56-1.56h4.67c6.23,1.56,10.9,4.67,12.46,7.79,3.11,4.67,4.67,7.78,4.67,12.46v9.34h0v1.56L1945,2395h0l-1.55,3.11-1.56,3.12-1.56,4.67c0,1.56-3.11,4.67-7.78,9.34s-10.9,6.23-20.25,6.23H1903l-4.67-1.55h0s-3.12,0-15.58-3.12l-6.22-1.56-7.79-3.11c-6.23-3.12-10.9-4.67-14-7.79-7.79-4.67-14-10.9-15.58-15.57-3.11-7.79-3.11-18.69,0-31.15v-1.55l1.56-4.67,3.11-6.23c3.12-3.12,4.68-6.23,7.79-7.79l3.12-1.56,3.11-1.55,9.34-3.12-7.78-15.57-7.79,3.11-3.11,1.56-3.12,3.12-3.11,3.11c-4.67,3.11-7.79,6.23-9.35,10.9l-3.11,3.12-1.56,3.11-1.56,1.56-1.56,3.11v3.12l-1.55,9.34-1.56,7.79v15.57c0,10.9,4.67,20.24,10.9,28,7.79,7.79,14,12.46,20.25,15.57l6.23,3.11,1.55,1.56,1.56,1.56H1864l4.67,1.56h7.79l9.34,1.55,9.34,1.56,9.35,1.56,7.78,1.56H1917c10.9,0,20.25-1.56,31.15-7.79,4.67-1.56,7.79-4.67,10.9-9.34l1.56-1.56,1.55-3.11,3.12-4.68c1.56-3.11,3.11-6.23,3.11-7.78,1.56-3.12,1.56-6.23,3.12-7.79v-17.13h0c-4.67-7.79-6.23-14-7.79-18.69" transform="translate(0.03 0)"/><path class="cls-1" d="M2049.33,2323.4c3.12,3.11,6.23,3.11,10.9,3.11h1.56c6.22-1.56,10.9-3.11,12.45-6.23a14.13,14.13,0,0,0,4.68-10.9v-3.11h0c-1.56-4.67-3.12-7.79-7.79-10.9-3.12-3.12-7.79-3.12-12.46-3.12a27.26,27.26,0,0,0-9.34,1.56c-4.67,1.56-9.34,4.67-9.34,15.57v4.67q4.66,7,9.34,9.35" transform="translate(0.03 0)"/><path class="cls-1" d="M2083.59,2409c-3.11,4.67-4.67,6.23-7.79,7.79l-3.11,1.56h-21.8l1.56-38.93v-6.23a55.85,55.85,0,0,1,3.11-17.13c1.56-3.12,3.11-4.67,9.34-4.67h0q4.67,0,9.34,4.67a42.93,42.93,0,0,1,9.35,12.46,71.86,71.86,0,0,1,3.11,21.8,25.48,25.48,0,0,1-3.11,18.68m12.46-57.61c-7.79-10.9-17.13-15.58-31.15-15.58h-1.56c-9.34,0-17.12,3.12-21.8,9.35-6.22,6.23-9.34,15.57-9.34,26.47l-1.56,46.72H2010.4l1.55-82.54-21.79-1.55L1987,2434l84.09,1.56c9.35,0,15.57-3.12,21.8-7.79,4.67-4.67,9.35-10.9,10.9-18.69l1.56-4.67V2388.8q0-23.36-9.34-37.37" transform="translate(0.03 0)"/><path class="cls-1" d="M721,2340.53l-9.35,3.11-14-42h0v-4.73c-1.56-4.67-1.56-7.79-1.56-12.45,1.56-4.68,6.23-6.23,9.34-7.79h4.68c3.11,0,7.78,1.56,12.45,3.11,6.23,3.12,12.46,12.46,15.58,23.36l1.55,6.23,1.56,6.23v7.79c-1.56,4.67-4.67,9.34-7.79,10.9-6.22,3.11-10.9,4.67-12.45,6.23m-12.46,34.25-1.56,3.12c0,1.56-1.56,3.11-6.23,4.67l-3.11,3.12-4.67,3.11c-1.56,0-1.56,0-3.12,1.56H688.3l-7.78,1.55h-7.79v-3.11a1.53,1.53,0,0,1,1.5-1.56h.06l6.23-3.11V2381c0-1.55-1.56-4.67-3.12-6.23l-1.55-1.55-1.56-1.56,20.24-6.23,3.12,3.12q2.34,2.34,9.34,4.67a1.52,1.52,0,0,1,1.56,1.48v.07m32.7-15.57c-1.56-1.56-3.11-9.34-3.11-9.34l6.22-4.67,4.68-4.67,3.11-3.12c1.56-3.11,3.12-7.78,3.12-10.9v-10.9c-1.56-7.79-1.56-14-3.12-18.69l-1.56-4.67-1.55-4.67-3.12-4.67-1.56-4.67h0a47.29,47.29,0,0,0-12.45-12.46,75.73,75.73,0,0,0-17.13-6.23h-3.12c-4.67,0-10.9,1.56-17.13,3.11-1.55,0-3.11,1.56-4.67,3.12s-4.67,3.11-6.23,4.67c-4.67,3.12-7.78,9.34-9.34,15.57s-1.56,14,1.56,23.36l14,43.6-17.13,6.23-26.47-79.42-23.36,7.79L654,2381l7.78-3.11-1.56,1.56c-3.11,3.11-6.22,7.78-4.67,12.45V2395l1.56,3.11c3.11,10.9,10.9,12.46,15.57,12.46,1.56,0,4.67,0,6.23-1.56l10.9-3.11,10.9-3.12,9.35-3.11,7.78-4.67c9.35-4.67,12.46-10.9,12.46-14v-9.34l3.11-1.55c9.35,10.89,21.81,0,21.81,0l-4.68-14c1.56,0-6.23,4.67-9.34,3.11" transform="translate(0.03 0)"/></svg>